# Blender 4.0.2
# www.blender.org
mtllib PillarBase.mtl
o Cube.001
v -0.908634 1.634167 0.908634
v -0.908634 1.634167 -0.908634
v 0.908634 1.634167 0.908634
v 0.908634 1.634167 -0.908634
v 0.996329 -0.001314 -0.996329
v 0.996329 -0.001314 0.996329
v -0.996329 -0.001314 -0.996329
v -0.996329 -0.001314 0.996329
v -1.016038 1.626572 1.016038
v -1.016038 1.626572 -1.016038
v 1.016038 1.626572 1.016038
v 1.016038 1.626572 -1.016038
v 1.000000 7.973032 -1.000000
v 1.000000 9.052566 -1.000000
v 1.000000 7.973032 1.000000
v 1.000000 9.052566 1.000000
v -1.000000 7.973032 -1.000000
v -1.000000 9.052566 -1.000000
v -1.000000 7.973032 1.000000
v -1.000000 9.052566 1.000000
v 0.824031 7.763421 -0.824031
v 0.824031 7.763421 0.824031
v -0.824031 7.763421 -0.824031
v -0.824031 7.763421 0.824031
v 0.824031 7.053329 -0.824031
v 0.824031 7.053329 0.824031
v -0.824031 7.053329 -0.824031
v -0.824031 7.053329 0.824031
v 1.002156 7.048542 -1.002156
v 1.002156 7.048542 1.002156
v -1.002156 7.048542 -1.002156
v -1.002156 7.048542 1.002156
v 1.002156 6.715466 -1.002156
v 1.002156 6.715466 1.002156
v -1.002156 6.715466 -1.002156
v -1.002156 6.715466 1.002156
v 0.913416 6.715466 -0.913416
v 0.913416 6.715466 0.913416
v -0.913416 6.715466 -0.913416
v -0.913416 6.715466 0.913416
v 0.913416 6.616578 -0.913416
v 0.913416 6.616578 0.913416
v -0.913416 6.616578 -0.913416
v -0.913416 6.616578 0.913416
v 0.998764 6.616578 -0.998764
v 0.998764 6.616578 0.998764
v -0.998764 6.616578 -0.998764
v -0.998764 6.616578 0.998764
v 0.998764 6.300136 -0.998764
v 0.998764 6.300136 0.998764
v -0.998764 6.300136 -0.998764
v -0.998764 6.300136 0.998764
v 0.909345 6.300136 -0.909345
v 0.909345 6.300136 0.909345
v -0.909345 6.300136 -0.909345
v -0.909345 6.300136 0.909345
v 0.909345 5.692567 -0.909345
v 0.909345 5.692567 0.909345
v -0.909345 5.692567 -0.909345
v -0.909345 5.692567 0.909345
v 0.769249 5.477387 -0.769249
v 0.769249 5.477387 0.769249
v -0.769249 5.477387 -0.769249
v -0.769249 5.477387 0.769249
v 0.769249 2.266129 -0.769249
v 0.769249 2.266129 0.769249
v -0.769249 2.266129 -0.769249
v -0.769249 2.266129 0.769249
v 0.908634 2.050357 -0.908634
v 0.908634 2.050357 0.908634
v -0.908634 2.050357 -0.908634
v -0.908634 2.050357 0.908634
v -0.908634 1.634167 0.908634
v -0.908634 1.634167 -0.908634
v 0.908634 1.634167 0.908634
v 0.908634 1.634167 -0.908634
v -0.769249 5.165941 -0.459093
v -0.459093 5.165941 -0.769249
v -0.769249 5.476098 -0.769249
v -0.459093 2.577574 -0.769249
v -0.769249 2.577574 -0.459093
v -0.769249 2.267417 -0.769249
v 0.769249 2.577574 -0.459093
v 0.459093 2.577574 -0.769249
v 0.769249 2.267417 -0.769249
v 0.459093 5.165941 -0.769249
v 0.769249 5.165941 -0.459093
v 0.769249 5.476098 -0.769249
v 0.459093 2.577574 0.769249
v 0.769249 2.577574 0.459093
v 0.769249 2.267417 0.769249
v 0.769249 5.165941 0.459093
v 0.459093 5.165941 0.769249
v 0.769249 5.476098 0.769249
v -0.459093 5.165941 0.769249
v -0.769249 5.165941 0.459093
v -0.769249 5.476098 0.769249
v -0.769249 2.577574 0.459093
v -0.459093 2.577574 0.769249
v -0.769249 2.267417 0.769249
vn 0.0353 0.9988 -0.0353
vn 0.5872 0.5572 -0.5872
vn -0.5872 0.5572 -0.5872
vn -0.0353 0.9988 -0.0353
vn -0.5872 0.5572 0.5872
vn -0.0353 0.9988 0.0353
vn 0.0353 0.9988 0.0353
vn 0.5872 0.5572 0.5872
vn -0.5741 -0.5837 -0.5741
vn -0.5741 -0.5837 0.5741
vn 0.5741 -0.5837 -0.5741
vn 0.5741 -0.5837 0.5741
vn 0.6590 -0.3625 -0.6590
vn 0.6046 -0.5186 -0.6046
vn -0.6046 -0.5186 -0.6046
vn -0.6590 -0.3625 -0.6590
vn 0.5774 0.5774 0.5774
vn -0.5774 0.5774 0.5774
vn -0.6590 -0.3625 0.6590
vn 0.6590 -0.3625 0.6590
vn -0.5774 0.5774 -0.5774
vn 0.5774 0.5774 -0.5774
vn -0.6046 -0.5186 0.6046
vn -0.3115 0.8978 0.3115
vn 0.3115 0.8978 0.3115
vn 0.6046 -0.5186 0.6046
vn 0.3115 0.8978 -0.3115
vn 0.5799 0.5722 -0.5799
vn -0.5799 0.5722 -0.5799
vn -0.3115 0.8978 -0.3115
vn -0.5773 -0.5774 -0.5774
vn -0.5773 -0.5774 0.5774
vn -0.5799 0.5722 0.5799
vn 0.5799 0.5722 0.5799
vn 0.5773 -0.5774 -0.5774
vn 0.3015 -0.9045 -0.3015
vn -0.3015 -0.9045 -0.3015
vn 0.5773 -0.5774 0.5774
vn 0.3015 -0.9045 0.3015
vn 0.3015 0.9045 0.3015
vn 0.3015 0.9045 -0.3015
vn -0.3015 -0.9045 0.3015
vn -0.3015 0.9045 -0.3015
vn -0.5773 0.5774 -0.5774
vn -0.5773 0.5774 0.5774
vn -0.3015 0.9045 0.3015
vn 0.5773 0.5774 -0.5774
vn 0.5774 -0.5774 -0.5774
vn -0.5774 -0.5774 -0.5774
vn 0.5773 0.5774 0.5774
vn 0.5774 -0.5774 0.5774
vn -0.5774 -0.5774 0.5774
vn -0.6705 -0.3175 -0.6705
vn -0.6705 -0.3175 0.6705
vn -0.6367 -0.4351 -0.6367
vn -0.6367 -0.4351 0.6367
vn 0.6705 -0.3175 0.6705
vn 0.6705 -0.3175 -0.6705
vn 0.6998 0.1429 0.6998
vn 0.6375 0.4325 0.6375
vn 0.6375 0.4325 -0.6375
vn 0.6998 0.1429 -0.6998
vn 0.9518 0.1020 -0.2893
vn 0.9518 0.1020 0.2893
vn 0.6367 -0.4351 0.6367
vn 0.6367 -0.4351 -0.6367
vn 0.6708 0.3161 -0.6708
vn -0.6708 0.3161 -0.6708
vn -0.6375 0.4325 -0.6375
vn 0.9518 -0.1020 0.2893
vn 0.9518 -0.1020 -0.2893
vn -0.6998 0.1429 -0.6998
vn -0.2893 0.1020 -0.9518
vn 0.2893 0.1020 -0.9518
vn -0.2893 -0.1020 0.9518
vn -0.2893 0.1020 0.9518
vn 0.2893 0.1020 0.9518
vn 0.2893 -0.1020 0.9518
vn 0.6708 0.3161 0.6708
vn -0.6708 0.3161 0.6708
vn -0.6375 0.4325 0.6375
vn 0.7071 -0.0000 0.7071
vn 0.7071 -0.0000 -0.7071
vn -0.7071 -0.0000 -0.7071
vn -0.7071 -0.0000 0.7071
vn -0.6998 -0.1429 0.6998
vn 0.6998 -0.1429 0.6998
vn 0.2893 -0.1020 -0.9518
vn -0.2893 -0.1020 -0.9518
vn -0.6998 0.1429 0.6998
vn -0.9518 0.1020 0.2893
vn -0.9518 0.1020 -0.2893
vn 0.6998 -0.1429 -0.6998
vn -0.6998 -0.1429 -0.6998
vn -0.9518 -0.1020 -0.2893
vn -0.9518 -0.1020 0.2893
vt 0.501486 0.119413
vt 0.502375 0.125014
vt 0.685295 0.123946
vt 0.678975 0.119183
vt 0.045863 0.115527
vt 0.033291 0.121668
vt 0.210923 0.125603
vt 0.209803 0.117361
vt 0.344573 0.118656
vt 0.346366 0.124613
vt 0.035012 0.291124
vt 0.214140 0.293296
vt 0.032840 0.470251
vt 0.211968 0.472424
vt 0.348467 0.290263
vt 0.507569 0.288948
vt 0.686135 0.288549
vt 0.738237 0.816547
vt 0.729471 0.801975
vt 0.628881 0.840986
vt 0.625081 0.858001
vt 0.888726 0.783312
vt 0.968100 0.631798
vt 0.880348 0.603524
vt 0.825405 0.730327
vt 0.982740 0.447649
vt 0.874865 0.445976
vt 0.866721 0.993345
vt 0.982740 0.899331
vt 0.772707 0.877326
vt 0.650310 0.924067
vt 0.856904 0.598221
vt 0.806202 0.588822
vt 0.769486 0.692682
vt 0.809001 0.718089
vt 0.849396 0.464337
vt 0.726241 0.314837
vt 0.726408 0.334217
vt 0.923642 0.312292
vt 0.897542 0.290740
vt 0.703146 0.762472
vt 0.611977 0.801704
vt 0.803643 0.466525
vt 0.240520 0.312514
vt 0.235223 0.359763
vt 0.428792 0.366396
vt 0.428685 0.336557
vt 0.576518 0.318947
vt 0.575674 0.336503
vt 0.261406 0.296812
vt 0.430631 0.320819
vt 0.729804 0.364469
vt 0.729737 0.371361
vt 0.915748 0.368581
vt 0.923020 0.361265
vt 0.578631 0.367890
vt 0.578478 0.375439
vt 0.578473 0.381981
vt 0.729820 0.379413
vt 0.246521 0.371795
vt 0.428306 0.375528
vt 0.246360 0.379669
vt 0.239326 0.386281
vt 0.427907 0.390046
vt 0.428148 0.383483
vt 0.915853 0.376635
vt 0.729595 0.388341
vt 0.730508 0.417412
vt 0.923935 0.433909
vt 0.927342 0.388063
vt 0.578314 0.389272
vt 0.729997 0.425159
vt 0.914051 0.442124
vt 0.580976 0.419511
vt 0.237702 0.431221
vt 0.429975 0.418733
vt 0.008427 0.496656
vt 0.011401 0.556014
vt 0.175961 0.547113
vt 0.175955 0.487755
vt 0.580797 0.427851
vt 0.250005 0.442124
vt 0.429996 0.427956
vt 0.026345 0.580414
vt 0.176654 0.572885
vt 0.175913 0.489876
vt 0.175914 0.548271
vt 0.324958 0.547431
vt 0.324955 0.489037
vt 0.487951 0.493409
vt 0.480639 0.550419
vt 0.632689 0.572306
vt 0.640001 0.515296
vt 0.324681 0.488902
vt 0.324664 0.547179
vt 0.473800 0.551935
vt 0.475389 0.493658
vt 0.326978 0.927520
vt 0.326982 0.927647
vt 0.474162 0.923375
vt 0.474150 0.923247
vt 0.446615 0.894239
vt 0.350831 0.895810
vt 0.324521 0.572174
vt 0.472092 0.576198
vt 0.616453 0.594713
vt 0.477127 0.949435
vt 0.636002 0.926128
vt 0.619537 0.903643
vt 0.349958 0.602928
vt 0.445564 0.606624
vt 0.619521 0.903525
vt 0.587329 0.878907
vt 0.495323 0.890359
vt 0.203285 0.603000
vt 0.204186 0.895589
vt 0.300849 0.897328
vt 0.299904 0.603659
vt 0.327288 0.952608
vt 0.476551 0.947562
vt 0.025285 0.920293
vt 0.010249 0.945323
vt 0.178576 0.953274
vt 0.178850 0.927024
vt 0.178221 0.951701
vt 0.327372 0.952436
vt 0.327292 0.992422
vt 0.476523 0.987376
vt 0.476999 0.988761
vt 0.641340 0.965454
vt 0.178219 0.991773
vt 0.327372 0.992509
vt 0.008428 0.986865
vt 0.178552 0.994816
vt 0.176660 0.573012
vt 0.324523 0.572301
vt 0.494877 0.608830
vt 0.583602 0.620204
vt 0.025284 0.920167
vt 0.178850 0.926895
vt 0.153745 0.895148
vt 0.056631 0.888422
vt 0.472085 0.576327
vt 0.026347 0.580534
vt 0.056929 0.610015
vt 0.153272 0.605390
vt 0.014340 0.616954
vt 0.011744 0.881546
vt 0.616438 0.594834
s 1
usemtl Material
f 4/1/1 12/2/2 10/3/3 2/4/4
f 2/5/4 10/6/3 9/7/5 1/8/6
f 3/9/7 11/10/8 12/2/2 4/1/1
f 1/8/6 9/7/5 11/10/8 3/9/7
f 10/6/3 7/11/9 8/12/10 9/7/5
f 5/13/11 6/14/12 8/12/10 7/11/9
f 9/7/5 8/12/10 6/15/12 11/10/8
f 12/2/2 5/16/11 7/17/9 10/3/3
f 11/10/8 6/15/12 5/16/11 12/2/2
f 13/18/13 21/19/14 23/20/15 17/21/16
f 16/22/17 20/23/18 19/24/19 15/25/20
f 20/23/18 18/26/21 17/27/16 19/24/19
f 18/28/21 20/29/18 16/22/17 14/30/22
f 14/30/22 16/22/17 15/25/20 13/18/13
f 18/31/21 14/30/22 13/18/13 17/21/16
f 24/32/23 28/33/24 26/34/25 22/35/26
f 19/24/19 24/32/23 22/35/26 15/25/20
f 17/27/16 23/36/15 24/32/23 19/24/19
f 15/25/20 22/35/26 21/19/14 13/18/13
f 25/37/27 29/38/28 31/39/29 27/40/30
f 21/19/14 25/41/27 27/42/30 23/20/15
f 22/35/26 26/34/25 25/41/27 21/19/14
f 23/36/15 27/43/30 28/33/24 24/32/23
f 31/44/29 35/45/31 36/46/32 32/47/33
f 26/48/25 30/49/34 29/38/28 25/37/27
f 27/50/30 31/44/29 32/47/33 28/51/24
f 28/51/24 32/47/33 30/49/34 26/48/25
f 33/52/35 37/53/36 39/54/37 35/55/31
f 32/47/33 36/46/32 34/56/38 30/49/34
f 29/38/28 33/52/35 35/55/31 31/39/29
f 30/49/34 34/56/38 33/52/35 29/38/28
f 38/57/39 42/58/40 41/59/41 37/53/36
f 34/56/38 38/57/39 37/53/36 33/52/35
f 35/45/31 39/60/37 40/61/42 36/46/32
f 36/46/32 40/61/42 38/57/39 34/56/38
f 43/62/43 47/63/44 48/64/45 44/65/46
f 39/60/37 43/62/43 44/65/46 40/61/42
f 40/61/42 44/65/46 42/58/40 38/57/39
f 37/53/36 41/59/41 43/66/43 39/54/37
f 45/67/47 49/68/48 51/69/49 47/70/44
f 44/65/46 48/64/45 46/71/50 42/58/40
f 41/59/41 45/67/47 47/70/44 43/66/43
f 42/58/40 46/71/50 45/67/47 41/59/41
f 49/68/48 53/72/36 55/73/37 51/69/49
f 46/71/50 50/74/51 49/68/48 45/67/47
f 47/63/44 51/75/49 52/76/52 48/64/45
f 48/64/45 52/76/52 50/74/51 46/71/50
f 55/77/37 59/78/53 60/79/54 56/80/42
f 50/74/51 54/81/39 53/72/36 49/68/48
f 51/75/49 55/82/37 56/83/42 52/76/52
f 52/76/52 56/83/42 54/81/39 50/74/51
f 59/78/53 63/84/55 64/85/56 60/79/54
f 56/86/42 60/87/54 58/88/57 54/89/39
f 53/90/36 57/91/58 59/92/53 55/93/37
f 54/94/39 58/95/57 57/96/58 53/97/36
f 91/98/59 66/99/60 65/100/61 85/101/62 83/102/63 90/103/64
f 60/87/54 64/85/56 62/104/65 58/88/57
f 57/91/58 61/105/66 63/106/55 59/92/53
f 58/95/57 62/104/65 61/105/66 57/96/58
f 65/100/61 69/107/67 71/108/68 67/109/69
f 92/110/70 90/103/64 83/102/63 87/111/71
f 85/101/62 65/100/61 67/109/69 82/112/72 80/113/73 84/114/74
f 95/115/75 99/116/76 89/117/77 93/118/78
f 66/99/60 70/119/79 69/120/67 65/100/61
f 67/121/69 71/122/68 72/123/80 68/124/81
f 68/124/81 72/125/80 70/126/79 66/99/60
f 70/119/79 75/127/82 76/128/83 69/120/67
f 69/107/67 76/129/83 74/130/84 71/108/68
f 72/125/80 73/131/85 75/132/82 70/126/79
f 71/122/68 74/133/84 73/134/85 72/123/80
f 64/85/56 97/135/86 95/115/75 93/118/78 94/136/87 62/104/65
f 86/137/88 84/114/74 80/113/73 78/138/89
f 82/139/72 67/121/69 68/124/81 100/140/90 98/141/91 81/142/92
f 100/140/90 68/124/81 66/99/60 91/98/59 89/117/77 99/116/76
f 62/104/65 94/136/87 92/110/70 87/111/71 88/143/93 61/105/66
f 63/84/55 79/144/94 77/145/95 96/146/96 97/135/86 64/85/56
f 77/145/95 81/142/92 98/141/91 96/146/96
f 77/145/95 79/144/94 78/147/89
f 80/148/73 82/139/72 81/142/92
f 83/102/63 85/101/62 84/114/74
f 86/137/88 88/143/93 87/111/71
f 89/117/77 91/98/59 90/103/64
f 92/110/70 94/136/87 93/118/78
f 95/115/75 97/135/86 96/146/96
f 98/141/91 100/140/90 99/116/76
f 77/145/95 78/147/89 80/148/73 81/142/92
f 83/102/63 84/114/74 86/137/88 87/111/71
f 89/117/77 90/103/64 92/110/70 93/118/78
f 95/115/75 96/146/96 98/141/91 99/116/76
f 61/105/66 88/143/93 86/137/88 78/138/89 79/149/94 63/106/55
