# This file uses centimeters as units for non-parametric coordinates.

mtllib SM_WallTrimTop.mtl
g default
v 0.000000 2.400000 3.000000
v -0.100000 3.030000 3.000000
v 0.000000 2.400000 0.000000
v -0.100000 3.030000 0.000000
v 0.200000 2.840000 3.000000
v 0.200000 3.030000 3.000000
v 0.200000 2.840000 0.000000
v 0.200000 3.030000 0.000000
v -0.100000 2.830000 3.000000
v -0.100000 2.830000 0.000000
v 0.100000 2.703694 0.000000
v 0.100000 2.703694 3.000000
vt 0.163033 0.000153
vt 0.226347 0.000153
vt 0.226347 0.999847
vt 0.163033 0.999847
vt 0.106698 0.000153
vt 0.106698 0.999847
vt 0.326316 0.999847
vt 0.326316 0.000153
vt 0.392962 0.000153
vt 0.392962 0.999847
vt 0.000153 0.000153
vt 0.000153 0.999847
vn 1.000000 0.000000 0.000000
vn 1.000000 0.000000 0.000000
vn 1.000000 0.000000 0.000000
vn 1.000000 0.000000 0.000000
vn 0.806285 -0.591527 0.000000
vn 0.806285 -0.591527 0.000000
vn 0.806285 -0.591527 0.000000
vn 0.806285 -0.591527 0.000000
vn 0.000000 1.000000 0.000000
vn 0.000000 1.000000 0.000000
vn 0.000000 1.000000 0.000000
vn 0.000000 1.000000 0.000000
vn -1.000000 0.000000 0.000000
vn -1.000000 0.000000 0.000000
vn -1.000000 0.000000 0.000000
vn -1.000000 0.000000 0.000000
vn 0.949832 -0.312760 0.000000
vn 0.949832 -0.312760 0.000000
vn 0.949832 -0.312760 0.000000
vn 0.949832 -0.312760 0.000000
s off
g polySurface1 SM_Wall_Trim_Top:Mesh1
usemtl initialShadingGroup
f 7/1/1 8/2/2 6/3/3 5/4/4
f 11/5/5 7/1/6 5/4/7 12/6/8
f 2/7/9 6/3/10 8/2/11 4/8/12
f 2/7/13 4/8/14 10/9/15 9/10/16
f 3/11/17 11/5/18 12/6/19 1/12/20
