# Blender 3.6.0
# www.blender.org
mtllib SM_Pillar_2.mtl
o Pillar2
v -0.500008 3.304861 0.158961
v -0.500008 2.948534 0.158961
v -0.500008 0.910680 0.158961
v -0.718234 3.304861 0.158961
v -0.718234 2.948534 0.158961
v -0.718234 0.910680 0.158961
v -0.718234 2.005488 0.158961
v -0.500008 2.005488 0.158961
v -0.841039 0.910680 0.499992
v -0.500008 3.304861 0.499992
v -0.718234 3.304861 0.499992
v -0.841039 3.304861 0.499992
v -0.841039 2.948534 0.499992
v -0.841039 2.005488 0.499992
v -0.841039 0.910680 0.269075
v -0.841039 2.005488 0.269075
v -0.841039 2.948534 0.269075
v -0.841039 3.304861 0.269075
v -0.718234 3.304861 0.269075
v -0.500008 3.304861 0.269075
v -0.700050 2.948534 0.186467
v -0.700050 2.005488 0.186467
v -0.813532 2.005488 0.288223
v -0.813533 2.948534 0.288222
v -0.718234 0.829017 0.118461
v -0.500008 0.829017 0.118461
v -0.881539 0.829017 0.269075
v -0.881539 0.829017 0.499992
v -0.680202 2.906607 0.216488
v -0.680202 2.048106 0.216488
v -0.783512 2.048106 0.309121
v -0.783512 2.906607 0.309121
v -0.881539 0.436223 0.499992
v -0.881539 0.436223 0.269075
v -0.718234 0.436223 0.118461
v -0.500008 0.436223 0.118461
v -0.788682 0.296336 -0.000008
v -0.788682 -0.000000 -0.000008
v -0.500008 0.296336 -0.000008
v -0.500008 -0.000000 -0.000008
v -1.000008 0.296336 0.194895
v -1.000008 -0.000000 0.194895
v -1.000008 0.296336 0.499992
v -1.000008 -0.000000 0.499992
v -0.841039 0.907533 0.183044
v -0.816957 0.907442 0.158961
v -0.816265 1.935320 0.158961
v -0.841039 1.936246 0.182335
v -0.841039 3.304861 0.183043
v -0.816957 3.304861 0.158961
v -0.841039 3.023896 0.182280
v -0.816211 3.024814 0.158961
v -0.788720 1.936807 0.186467
v -0.813532 1.937725 0.209778
v -0.813532 3.022292 0.209724
v -0.788669 3.023196 0.186467
v -0.857457 0.825583 0.118461
v -0.881539 0.825633 0.142544
v -0.881539 0.436222 0.142544
v -0.857457 0.436222 0.118461
v -0.759429 1.986739 0.216488
v -0.783512 1.988889 0.240571
v -0.759453 2.973376 0.216488
v -0.783512 2.971040 0.240547
v -0.975926 0.296335 -0.000008
v -1.000008 0.296335 0.024074
v -0.975926 -0.000000 -0.000008
v -1.000008 -0.000000 0.024074
v -0.281781 3.304861 0.158961
v -0.281781 2.948534 0.158961
v -0.281781 0.910680 0.158961
v -0.281781 2.005488 0.158961
v -0.158977 0.910680 0.499992
v -0.281781 3.304861 0.499992
v -0.158977 3.304861 0.499992
v -0.158977 2.948534 0.499992
v -0.158977 2.005488 0.499992
v -0.158977 0.910680 0.269075
v -0.158977 2.005488 0.269075
v -0.158977 2.948534 0.269075
v -0.158977 3.304861 0.269075
v -0.281781 3.304861 0.269075
v -0.299966 2.948534 0.186467
v -0.299966 2.005488 0.186467
v -0.186483 2.005488 0.288223
v -0.186483 2.948534 0.288222
v -0.281781 0.829017 0.118461
v -0.118477 0.829017 0.269075
v -0.118477 0.829017 0.499992
v -0.319813 2.906607 0.216488
v -0.319813 2.048106 0.216488
v -0.216504 2.048106 0.309121
v -0.216504 2.906607 0.309121
v -0.118477 0.436223 0.499992
v -0.118477 0.436223 0.269075
v -0.281781 0.436223 0.118461
v -0.211334 0.296336 -0.000008
v -0.211334 -0.000000 -0.000008
v -0.000008 0.296336 0.194895
v -0.000008 -0.000000 0.194895
v -0.000008 0.296336 0.499992
v -0.000008 -0.000000 0.499992
v -0.158977 0.907533 0.183044
v -0.183059 0.907442 0.158961
v -0.183750 1.935320 0.158961
v -0.158977 1.936246 0.182335
v -0.158977 3.304861 0.183043
v -0.183059 3.304861 0.158961
v -0.158977 3.023896 0.182280
v -0.183805 3.024814 0.158961
v -0.211296 1.936807 0.186467
v -0.186483 1.937725 0.209778
v -0.186483 3.022292 0.209724
v -0.211347 3.023196 0.186467
v -0.142559 0.825583 0.118461
v -0.118477 0.825633 0.142544
v -0.118477 0.436222 0.142544
v -0.142559 0.436222 0.118461
v -0.240586 1.986739 0.216488
v -0.216504 1.988889 0.240571
v -0.240563 2.973376 0.216488
v -0.216504 2.971040 0.240547
v -0.024090 0.296335 -0.000008
v -0.000008 0.296335 0.024074
v -0.024090 -0.000000 -0.000008
v -0.000008 -0.000000 0.024074
v -0.500008 3.304861 0.841023
v -0.500008 2.948534 0.841023
v -0.500008 0.910680 0.841023
v -0.718234 3.304861 0.841023
v -0.718234 2.948534 0.841023
v -0.718234 0.910680 0.841023
v -0.718234 2.005488 0.841023
v -0.500008 2.005488 0.841023
v -0.841039 0.910680 0.730910
v -0.841039 2.005488 0.730910
v -0.841039 2.948534 0.730910
v -0.841039 3.304861 0.730910
v -0.718234 3.304861 0.730910
v -0.500008 3.304861 0.730910
v -0.700050 2.948534 0.813517
v -0.700050 2.005488 0.813517
v -0.813532 2.005488 0.711762
v -0.813533 2.948534 0.711762
v -0.718234 0.829017 0.881523
v -0.500008 0.829017 0.881523
v -0.881539 0.829017 0.730910
v -0.680202 2.906607 0.783496
v -0.680202 2.048106 0.783496
v -0.783512 2.048106 0.690863
v -0.783512 2.906607 0.690863
v -0.881539 0.436223 0.730910
v -0.718234 0.436223 0.881523
v -0.500008 0.436223 0.881523
v -0.788682 0.296336 0.999992
v -0.788682 0.000000 0.999992
v -0.500008 0.296336 0.999992
v -0.500008 0.000000 0.999992
v -1.000008 0.296336 0.805090
v -1.000008 0.000000 0.805090
v -0.841039 0.907533 0.816941
v -0.816957 0.907442 0.841023
v -0.816265 1.935320 0.841023
v -0.841039 1.936246 0.817650
v -0.841039 3.304861 0.816941
v -0.816957 3.304861 0.841023
v -0.841039 3.023896 0.817704
v -0.816211 3.024814 0.841023
v -0.788720 1.936807 0.813517
v -0.813532 1.937725 0.790206
v -0.813532 3.022292 0.790260
v -0.788669 3.023196 0.813517
v -0.857457 0.825583 0.881523
v -0.881539 0.825633 0.857441
v -0.881539 0.436222 0.857441
v -0.857457 0.436222 0.881523
v -0.759429 1.986739 0.783496
v -0.783512 1.988889 0.759414
v -0.759453 2.973376 0.783496
v -0.783512 2.971040 0.759437
v -0.975926 0.296335 0.999992
v -1.000008 0.296335 0.975910
v -0.975926 0.000000 0.999992
v -1.000008 0.000000 0.975910
v -0.281781 3.304861 0.841023
v -0.281781 2.948534 0.841023
v -0.281781 0.910680 0.841023
v -0.281781 2.005488 0.841023
v -0.158977 0.910680 0.730910
v -0.158977 2.005488 0.730910
v -0.158977 2.948534 0.730910
v -0.158977 3.304861 0.730910
v -0.281781 3.304861 0.730910
v -0.299966 2.948534 0.813517
v -0.299966 2.005488 0.813517
v -0.186483 2.005488 0.711762
v -0.186483 2.948534 0.711762
v -0.281781 0.829017 0.881523
v -0.118477 0.829017 0.730910
v -0.319813 2.906607 0.783496
v -0.319813 2.048106 0.783496
v -0.216504 2.048106 0.690863
v -0.216504 2.906607 0.690863
v -0.118477 0.436223 0.730910
v -0.281781 0.436223 0.881523
v -0.211334 0.296336 0.999992
v -0.211334 0.000000 0.999992
v -0.000008 0.296336 0.805090
v -0.000008 0.000000 0.805090
v -0.158977 0.907533 0.816941
v -0.183059 0.907442 0.841023
v -0.183750 1.935320 0.841023
v -0.158977 1.936246 0.817650
v -0.158977 3.304861 0.816941
v -0.183059 3.304861 0.841023
v -0.158977 3.023896 0.817704
v -0.183805 3.024814 0.841023
v -0.211296 1.936807 0.813517
v -0.186483 1.937725 0.790206
v -0.186483 3.022292 0.790260
v -0.211347 3.023196 0.813517
v -0.142559 0.825583 0.881523
v -0.118477 0.825633 0.857441
v -0.118477 0.436222 0.857441
v -0.142559 0.436222 0.881523
v -0.240586 1.986739 0.783496
v -0.216504 1.988889 0.759414
v -0.240563 2.973376 0.783496
v -0.216504 2.971040 0.759437
v -0.024090 0.296335 0.999992
v -0.000008 0.296335 0.975910
v -0.024090 0.000000 0.999992
v -0.000008 0.000000 0.975910
vn -0.0000 -0.0000 -1.0000
vn -0.0000 1.0000 -0.0000
vn -1.0000 -0.0000 -0.0000
vn -0.8342 -0.0000 0.5515
vn 0.5713 -0.0000 -0.8207
vn -0.0000 0.4443 -0.8959
vn -0.8959 0.4443 -0.0000
vn -0.0000 0.6463 -0.7631
vn -0.7631 0.6463 -0.0000
vn -0.5786 0.5732 -0.5803
vn -0.6968 -0.0000 -0.7173
vn -0.0070 0.9989 -0.0469
vn -0.6959 0.0001 -0.7181
vn -0.0094 -0.9987 -0.0491
vn -0.5119 0.6430 -0.5697
vn -0.5101 -0.6429 -0.5714
vn -0.7071 -0.0000 -0.7071
vn -0.4532 0.7676 -0.4532
vn -0.5392 0.7250 0.4286
vn -0.5625 -0.6954 0.4471
vn 0.4613 0.6829 -0.5664
vn 0.4790 -0.6518 -0.5880
vn -0.0125 0.4463 -0.8948
vn -0.8947 0.4465 -0.0137
vn -0.4975 0.6424 -0.5829
vn -0.5422 -0.6435 -0.5403
vn -0.5265 0.6434 -0.5558
vn -0.4759 -0.6410 -0.6022
vn 1.0000 -0.0000 -0.0000
vn 0.8342 -0.0000 0.5515
vn -0.5713 -0.0000 -0.8207
vn 0.8959 0.4443 -0.0000
vn 0.7631 0.6463 -0.0000
vn 0.5786 0.5732 -0.5803
vn 0.6968 -0.0000 -0.7173
vn 0.0070 0.9989 -0.0469
vn 0.6959 0.0001 -0.7181
vn 0.0094 -0.9987 -0.0491
vn 0.5119 0.6430 -0.5697
vn 0.5101 -0.6429 -0.5714
vn 0.7071 -0.0000 -0.7071
vn 0.4532 0.7676 -0.4532
vn 0.5392 0.7250 0.4286
vn 0.5625 -0.6954 0.4471
vn -0.4613 0.6829 -0.5664
vn -0.4790 -0.6518 -0.5880
vn 0.0125 0.4463 -0.8948
vn 0.8947 0.4465 -0.0137
vn 0.4975 0.6424 -0.5830
vn 0.5422 -0.6435 -0.5403
vn 0.5265 0.6434 -0.5558
vn 0.4759 -0.6410 -0.6022
vn -0.0000 -0.0000 1.0000
vn -0.8342 -0.0000 -0.5515
vn 0.5713 -0.0000 0.8207
vn -0.0000 0.4443 0.8959
vn -0.0000 0.6463 0.7631
vn -0.5786 0.5732 0.5803
vn -0.6968 -0.0000 0.7173
vn -0.0070 0.9989 0.0469
vn -0.6959 0.0001 0.7181
vn -0.0094 -0.9987 0.0491
vn -0.5119 0.6430 0.5697
vn -0.5101 -0.6429 0.5714
vn -0.7071 -0.0000 0.7071
vn -0.4532 0.7676 0.4532
vn -0.5392 0.7250 -0.4286
vn -0.5625 -0.6954 -0.4471
vn 0.4613 0.6829 0.5664
vn 0.4790 -0.6518 0.5880
vn -0.0125 0.4463 0.8948
vn -0.8947 0.4465 0.0137
vn -0.4975 0.6424 0.5829
vn -0.5422 -0.6435 0.5403
vn -0.5265 0.6434 0.5558
vn -0.4759 -0.6410 0.6022
vn 0.8342 -0.0000 -0.5515
vn -0.5713 -0.0000 0.8207
vn 0.5786 0.5732 0.5803
vn 0.6968 -0.0000 0.7173
vn 0.0070 0.9989 0.0469
vn 0.6959 0.0001 0.7181
vn 0.0094 -0.9987 0.0491
vn 0.5119 0.6430 0.5697
vn 0.5101 -0.6429 0.5714
vn 0.7071 -0.0000 0.7071
vn 0.4532 0.7676 0.4532
vn 0.5392 0.7250 -0.4286
vn 0.5625 -0.6954 -0.4471
vn -0.4613 0.6829 0.5664
vn -0.4790 -0.6518 0.5880
vn 0.0125 0.4463 0.8948
vn 0.8947 0.4465 0.0137
vn 0.4975 0.6424 0.5830
vn 0.5422 -0.6435 0.5403
vn 0.5265 0.6434 0.5558
vn 0.4759 -0.6410 0.6022
vt 0.500000 0.500000
vt 0.437500 0.500000
vt 0.437500 0.750000
vt 0.437500 0.625000
vt 0.500000 0.625000
vt 0.500000 0.750000
vt 0.437500 0.437500
vt 0.500000 0.437500
vt 0.387256 0.500000
vt 0.250000 0.125000
vt 0.187500 0.125000
vt 0.187500 0.000000
vt 0.250000 0.000000
vt 0.375000 0.437500
vt 0.375000 0.375000
vt 0.437500 0.375000
vt 0.500000 0.375000
vt 0.625000 0.500000
vt 0.562500 0.500000
vt 0.625000 0.312500
vt 0.250000 0.250000
vt 0.187500 0.250000
vt 0.375000 0.500000
vt 0.384217 0.500000
vt 0.375000 0.500000
vt 0.375000 0.486733
vt 0.387608 0.500000
vt 0.375000 0.486331
vt 0.387636 0.500000
vt 0.375000 0.486764
vt 0.564389 0.500000
vt 0.575136 0.500000
vt 0.576194 0.500000
vt 0.564303 0.500000
vt 0.577055 0.500000
vt 0.134993 0.250000
vt 0.125000 0.250000
vt 0.125000 0.125000
vt 0.134993 0.125000
vt 0.375000 0.625000
vt 0.384217 0.625000
vt 0.382122 0.625000
vt 0.375000 0.625000
vt 0.389569 0.500000
vt 0.389555 0.500000
vt 0.382122 0.750000
vt 0.375000 0.750000
vt 0.132722 0.125000
vt 0.132722 0.000000
vt 0.375000 0.483767
vt 0.375000 0.483752
vt 0.375000 0.486331
vt 0.625000 0.263266
vt 0.625000 0.264318
vt 0.625000 0.263236
vt 0.625000 0.264285
vt 0.138669 0.250000
vt 0.625000 0.266248
vt 0.625000 0.266233
s 1
usemtl standardSurface1.004
f 1/1/1 2/1/1 5/2/1 4/2/1
f 7/2/1 8/1/1 3/1/1 6/2/1
f 38/3/1 37/4/1 39/5/1 40/6/1
f 2/1/1 8/1/1 7/2/1 5/2/1
f 1/1/2 4/2/2 19/7/2 20/8/2
f 4/2/2 50/9/2 19/7/2
f 43/10/3 41/11/3 42/12/3 44/13/3
f 16/14/3 15/14/3 9/15/3 14/15/3
f 17/14/3 16/14/3 14/15/3 13/15/3
f 18/14/3 17/14/3 13/15/3 12/15/3
f 19/7/2 18/14/2 12/15/2 11/16/2
f 20/8/2 19/7/2 11/16/2 10/17/2
f 5/18/4 7/19/4 22/19/4 21/18/4
f 16/20/5 17/20/5 24/20/5 23/20/5
f 6/2/6 3/1/6 26/1/6 25/2/6
f 9/21/7 15/22/7 27/22/7 28/21/7
f 21/18/4 22/19/4 30/19/4 29/18/4
f 23/20/5 24/20/5 32/20/5 31/20/5
f 27/22/3 34/11/3 33/10/3 28/21/3
f 36/5/1 35/4/1 25/2/1 26/1/1
f 35/4/8 36/5/8 39/5/8 37/4/8
f 33/10/9 34/11/9 41/11/9 43/10/9
f 45/23/10 46/9/10 57/24/10 58/25/10
f 46/9/11 45/23/11 48/26/11 47/27/11
f 47/19/12 48/19/12 54/19/12 53/19/12
f 49/28/13 50/9/13 52/29/13 51/30/13
f 51/31/14 52/32/14 56/33/14 55/34/14
f 53/19/15 54/19/15 62/19/15 61/19/15
f 55/19/16 56/33/16 63/35/16 64/19/16
f 58/36/17 57/37/17 60/38/17 59/39/17
f 59/40/18 60/41/18 65/42/18 66/43/18
f 61/44/17 62/23/17 64/23/17 63/45/17
f 66/43/17 65/42/17 67/46/17 68/47/17
f 65/42/1 37/4/1 38/3/1 67/46/1
f 47/27/1 7/2/1 6/2/1 46/9/1
f 4/2/1 5/2/1 52/29/1 50/9/1
f 29/2/1 30/2/1 61/44/1 63/45/1
f 41/11/3 66/48/3 68/49/3 42/12/3
f 49/28/3 51/30/3 17/14/3 18/14/3
f 64/50/3 62/51/3 31/14/3 32/14/3
f 48/26/3 45/52/3 15/14/3 16/14/3
f 7/19/19 47/19/19 53/19/19 22/19/19
f 52/32/20 5/18/20 21/18/20 56/33/20
f 48/53/21 16/20/21 23/20/21 54/54/21
f 17/20/22 51/55/22 55/56/22 24/20/22
f 46/9/23 6/2/23 25/2/23 57/24/23
f 15/22/24 45/57/24 58/36/24 27/22/24
f 22/19/25 53/19/25 61/19/25 30/19/25
f 56/33/26 21/18/26 29/18/26 63/35/26
f 54/54/27 23/20/27 31/20/27 62/58/27
f 24/20/28 55/56/28 64/59/28 32/20/28
f 58/36/3 59/39/3 34/11/3 27/22/3
f 57/24/1 25/2/1 35/4/1 60/41/1
f 60/41/8 35/4/8 37/4/8 65/42/8
f 34/11/9 59/39/9 66/48/9 41/11/9
f 19/7/2 50/9/2 49/28/2 18/14/2
f 1/1/1 69/2/1 70/2/1 2/1/1
f 72/2/1 71/2/1 3/1/1 8/1/1
f 98/3/1 40/6/1 39/5/1 97/4/1
f 2/1/1 70/2/1 72/2/1 8/1/1
f 1/1/2 20/8/2 82/7/2 69/2/2
f 69/2/2 82/7/2 108/9/2
f 101/10/29 102/13/29 100/12/29 99/11/29
f 79/14/29 77/15/29 73/15/29 78/14/29
f 80/14/29 76/15/29 77/15/29 79/14/29
f 81/14/29 75/15/29 76/15/29 80/14/29
f 82/7/2 74/16/2 75/15/2 81/14/2
f 20/8/2 10/17/2 74/16/2 82/7/2
f 70/18/30 83/18/30 84/19/30 72/19/30
f 79/20/31 85/20/31 86/20/31 80/20/31
f 71/2/6 87/2/6 26/1/6 3/1/6
f 73/21/32 89/21/32 88/22/32 78/22/32
f 83/18/30 90/18/30 91/19/30 84/19/30
f 85/20/31 92/20/31 93/20/31 86/20/31
f 88/22/29 89/21/29 94/10/29 95/11/29
f 36/5/1 26/1/1 87/2/1 96/4/1
f 96/4/8 97/4/8 39/5/8 36/5/8
f 94/10/33 101/10/33 99/11/33 95/11/33
f 103/23/34 116/25/34 115/24/34 104/9/34
f 104/9/35 105/27/35 106/26/35 103/23/35
f 105/19/36 111/19/36 112/19/36 106/19/36
f 107/28/37 109/30/37 110/29/37 108/9/37
f 109/31/38 113/34/38 114/33/38 110/32/38
f 111/19/39 119/19/39 120/19/39 112/19/39
f 113/19/40 122/19/40 121/35/40 114/33/40
f 116/36/41 117/39/41 118/38/41 115/37/41
f 117/40/42 124/43/42 123/42/42 118/41/42
f 119/44/41 121/45/41 122/23/41 120/23/41
f 124/43/41 126/47/41 125/46/41 123/42/41
f 123/42/1 125/46/1 98/3/1 97/4/1
f 105/27/1 104/9/1 71/2/1 72/2/1
f 69/2/1 108/9/1 110/29/1 70/2/1
f 90/2/1 121/45/1 119/44/1 91/2/1
f 99/11/29 100/12/29 126/49/29 124/48/29
f 107/28/29 81/14/29 80/14/29 109/30/29
f 122/50/29 93/14/29 92/14/29 120/51/29
f 106/26/29 79/14/29 78/14/29 103/52/29
f 72/19/43 84/19/43 111/19/43 105/19/43
f 110/32/44 114/33/44 83/18/44 70/18/44
f 106/53/45 112/54/45 85/20/45 79/20/45
f 80/20/46 86/20/46 113/56/46 109/55/46
f 104/9/47 115/24/47 87/2/47 71/2/47
f 78/22/48 88/22/48 116/36/48 103/57/48
f 84/19/49 91/19/49 119/19/49 111/19/49
f 114/33/50 121/35/50 90/18/50 83/18/50
f 112/54/51 120/58/51 92/20/51 85/20/51
f 86/20/52 93/20/52 122/59/52 113/56/52
f 116/36/29 88/22/29 95/11/29 117/39/29
f 115/24/1 118/41/1 96/4/1 87/2/1
f 118/41/8 123/42/8 97/4/8 96/4/8
f 95/11/33 99/11/33 124/48/33 117/39/33
f 82/7/2 81/14/2 107/28/2 108/9/2
f 127/1/53 130/2/53 131/2/53 128/1/53
f 133/2/53 132/2/53 129/1/53 134/1/53
f 156/3/53 158/6/53 157/5/53 155/4/53
f 128/1/53 131/2/53 133/2/53 134/1/53
f 127/1/2 140/8/2 139/7/2 130/2/2
f 130/2/2 139/7/2 166/9/2
f 43/10/3 44/13/3 160/12/3 159/11/3
f 136/14/3 14/15/3 9/15/3 135/14/3
f 137/14/3 13/15/3 14/15/3 136/14/3
f 138/14/3 12/15/3 13/15/3 137/14/3
f 139/7/2 11/16/2 12/15/2 138/14/2
f 140/8/2 10/17/2 11/16/2 139/7/2
f 131/18/54 141/18/54 142/19/54 133/19/54
f 136/20/55 143/20/55 144/20/55 137/20/55
f 132/2/56 145/2/56 146/1/56 129/1/56
f 9/21/7 28/21/7 147/22/7 135/22/7
f 141/18/54 148/18/54 149/19/54 142/19/54
f 143/20/55 150/20/55 151/20/55 144/20/55
f 147/22/3 28/21/3 33/10/3 152/11/3
f 154/5/53 146/1/53 145/2/53 153/4/53
f 153/4/57 155/4/57 157/5/57 154/5/57
f 33/10/9 43/10/9 159/11/9 152/11/9
f 161/23/58 174/25/58 173/24/58 162/9/58
f 162/9/59 163/27/59 164/26/59 161/23/59
f 163/19/60 169/19/60 170/19/60 164/19/60
f 165/28/61 167/30/61 168/29/61 166/9/61
f 167/31/62 171/34/62 172/33/62 168/32/62
f 169/19/63 177/19/63 178/19/63 170/19/63
f 171/19/64 180/19/64 179/35/64 172/33/64
f 174/36/65 175/39/65 176/38/65 173/37/65
f 175/40/66 182/43/66 181/42/66 176/41/66
f 177/44/65 179/45/65 180/23/65 178/23/65
f 182/43/65 184/47/65 183/46/65 181/42/65
f 181/42/53 183/46/53 156/3/53 155/4/53
f 163/27/53 162/9/53 132/2/53 133/2/53
f 130/2/53 166/9/53 168/29/53 131/2/53
f 148/2/53 179/45/53 177/44/53 149/2/53
f 159/11/3 160/12/3 184/49/3 182/48/3
f 165/28/3 138/14/3 137/14/3 167/30/3
f 180/50/3 151/14/3 150/14/3 178/51/3
f 164/26/3 136/14/3 135/14/3 161/52/3
f 133/19/67 142/19/67 169/19/67 163/19/67
f 168/32/68 172/33/68 141/18/68 131/18/68
f 164/53/69 170/54/69 143/20/69 136/20/69
f 137/20/70 144/20/70 171/56/70 167/55/70
f 162/9/71 173/24/71 145/2/71 132/2/71
f 135/22/72 147/22/72 174/36/72 161/57/72
f 142/19/73 149/19/73 177/19/73 169/19/73
f 172/33/74 179/35/74 148/18/74 141/18/74
f 170/54/75 178/58/75 150/20/75 143/20/75
f 144/20/76 151/20/76 180/59/76 171/56/76
f 174/36/3 147/22/3 152/11/3 175/39/3
f 173/24/53 176/41/53 153/4/53 145/2/53
f 176/41/57 181/42/57 155/4/57 153/4/57
f 152/11/9 159/11/9 182/48/9 175/39/9
f 139/7/2 138/14/2 165/28/2 166/9/2
f 127/1/53 128/1/53 186/2/53 185/2/53
f 188/2/53 134/1/53 129/1/53 187/2/53
f 207/3/53 206/4/53 157/5/53 158/6/53
f 128/1/53 134/1/53 188/2/53 186/2/53
f 127/1/2 185/2/2 193/7/2 140/8/2
f 185/2/2 215/9/2 193/7/2
f 101/10/29 208/11/29 209/12/29 102/13/29
f 190/14/29 189/14/29 73/15/29 77/15/29
f 191/14/29 190/14/29 77/15/29 76/15/29
f 192/14/29 191/14/29 76/15/29 75/15/29
f 193/7/2 192/14/2 75/15/2 74/16/2
f 140/8/2 193/7/2 74/16/2 10/17/2
f 186/18/77 188/19/77 195/19/77 194/18/77
f 190/20/78 191/20/78 197/20/78 196/20/78
f 187/2/56 129/1/56 146/1/56 198/2/56
f 73/21/32 189/22/32 199/22/32 89/21/32
f 194/18/77 195/19/77 201/19/77 200/18/77
f 196/20/78 197/20/78 203/20/78 202/20/78
f 199/22/29 204/11/29 94/10/29 89/21/29
f 154/5/53 205/4/53 198/2/53 146/1/53
f 205/4/57 154/5/57 157/5/57 206/4/57
f 94/10/33 204/11/33 208/11/33 101/10/33
f 210/23/79 211/9/79 222/24/79 223/25/79
f 211/9/80 210/23/80 213/26/80 212/27/80
f 212/19/81 213/19/81 219/19/81 218/19/81
f 214/28/82 215/9/82 217/29/82 216/30/82
f 216/31/83 217/32/83 221/33/83 220/34/83
f 218/19/84 219/19/84 227/19/84 226/19/84
f 220/19/85 221/33/85 228/35/85 229/19/85
f 223/36/86 222/37/86 225/38/86 224/39/86
f 224/40/87 225/41/87 230/42/87 231/43/87
f 226/44/86 227/23/86 229/23/86 228/45/86
f 231/43/86 230/42/86 232/46/86 233/47/86
f 230/42/53 206/4/53 207/3/53 232/46/53
f 212/27/53 188/2/53 187/2/53 211/9/53
f 185/2/53 186/2/53 217/29/53 215/9/53
f 200/2/53 201/2/53 226/44/53 228/45/53
f 208/11/29 231/48/29 233/49/29 209/12/29
f 214/28/29 216/30/29 191/14/29 192/14/29
f 229/50/29 227/51/29 202/14/29 203/14/29
f 213/26/29 210/52/29 189/14/29 190/14/29
f 188/19/88 212/19/88 218/19/88 195/19/88
f 217/32/89 186/18/89 194/18/89 221/33/89
f 213/53/90 190/20/90 196/20/90 219/54/90
f 191/20/91 216/55/91 220/56/91 197/20/91
f 211/9/92 187/2/92 198/2/92 222/24/92
f 189/22/93 210/57/93 223/36/93 199/22/93
f 195/19/94 218/19/94 226/19/94 201/19/94
f 221/33/95 194/18/95 200/18/95 228/35/95
f 219/54/96 196/20/96 202/20/96 227/58/96
f 197/20/97 220/56/97 229/59/97 203/20/97
f 223/36/29 224/39/29 204/11/29 199/22/29
f 222/24/53 198/2/53 205/4/53 225/41/53
f 225/41/57 205/4/57 206/4/57 230/42/57
f 204/11/33 224/39/33 231/48/33 208/11/33
f 193/7/2 215/9/2 214/28/2 192/14/2
