# Blender 3.6.0
# www.blender.org
mtllib SM_Floor_5x10.mtl
o Floor5x10
v 0.000000 0.000000 10.000000
v 1.000000 0.000000 10.000000
v 2.000000 0.000000 10.000000
v 3.000000 0.000000 10.000000
v 4.000000 0.000000 10.000000
v 5.000000 0.000000 10.000000
v 0.000000 0.000000 9.000000
v 1.000000 0.000000 9.000000
v 2.000000 0.000000 9.000000
v 3.000000 0.000000 9.000000
v 4.000000 0.000000 9.000000
v 5.000000 0.000000 9.000000
v 0.000000 0.000000 8.000000
v 1.000000 0.000000 8.000000
v 2.000000 0.000000 8.000000
v 3.000000 0.000000 8.000000
v 4.000000 0.000000 8.000000
v 5.000000 0.000000 8.000000
v 0.000000 0.000000 7.000000
v 1.000000 0.000000 7.000000
v 2.000000 0.000000 7.000000
v 3.000000 0.000000 7.000000
v 4.000000 0.000000 7.000000
v 5.000000 0.000000 7.000000
v 0.000000 0.000000 6.000000
v 1.000000 0.000000 6.000000
v 2.000000 0.000000 6.000000
v 3.000000 0.000000 6.000000
v 4.000000 0.000000 6.000000
v 5.000000 0.000000 6.000000
v 0.000000 -0.000000 5.000000
v 1.000000 -0.000000 5.000000
v 2.000000 -0.000000 5.000000
v 3.000000 -0.000000 5.000000
v 4.000000 -0.000000 5.000000
v 5.000000 -0.000000 5.000000
v 0.000000 -0.000000 4.000000
v 1.000000 -0.000000 4.000000
v 2.000000 -0.000000 4.000000
v 3.000000 -0.000000 4.000000
v 4.000000 -0.000000 4.000000
v 5.000000 -0.000000 4.000000
v 0.000000 -0.000000 3.000000
v 1.000000 -0.000000 3.000000
v 2.000000 -0.000000 3.000000
v 3.000000 -0.000000 3.000000
v 4.000000 -0.000000 3.000000
v 5.000000 -0.000000 3.000000
v 0.000000 -0.000000 2.000000
v 1.000000 -0.000000 2.000000
v 2.000000 -0.000000 2.000000
v 3.000000 -0.000000 2.000000
v 4.000000 -0.000000 2.000000
v 5.000000 -0.000000 2.000000
v 0.000000 -0.000000 1.000000
v 1.000000 -0.000000 1.000000
v 2.000000 -0.000000 1.000000
v 3.000000 -0.000000 1.000000
v 4.000000 -0.000000 1.000000
v 5.000000 -0.000000 1.000000
v 0.000000 -0.000000 0.000000
v 1.000000 -0.000000 0.000000
v 2.000000 -0.000000 0.000000
v 3.000000 -0.000000 0.000000
v 4.000000 -0.000000 0.000000
v 5.000000 -0.000000 0.000000
vn -0.0000 1.0000 -0.0000
vt 0.000000 0.000000
vt 0.100000 0.000000
vt 0.100000 0.100000
vt 0.000000 0.100000
vt 0.200000 0.000000
vt 0.200000 0.100000
vt 0.300000 0.000000
vt 0.300000 0.100000
vt 0.400000 0.000000
vt 0.400000 0.100000
vt 0.500000 0.000000
vt 0.500000 0.100000
vt 0.100000 0.200000
vt 0.000000 0.200000
vt 0.200000 0.200000
vt 0.300000 0.200000
vt 0.400000 0.200000
vt 0.500000 0.200000
vt 0.100000 0.300000
vt 0.000000 0.300000
vt 0.200000 0.300000
vt 0.300000 0.300000
vt 0.400000 0.300000
vt 0.500000 0.300000
vt 0.100000 0.400000
vt 0.000000 0.400000
vt 0.200000 0.400000
vt 0.300000 0.400000
vt 0.400000 0.400000
vt 0.500000 0.400000
vt 0.100000 0.500000
vt 0.000000 0.500000
vt 0.200000 0.500000
vt 0.300000 0.500000
vt 0.400000 0.500000
vt 0.500000 0.500000
vt 0.100000 0.600000
vt 0.000000 0.600000
vt 0.200000 0.600000
vt 0.300000 0.600000
vt 0.400000 0.600000
vt 0.500000 0.600000
vt 0.100000 0.700000
vt 0.000000 0.700000
vt 0.200000 0.700000
vt 0.300000 0.700000
vt 0.400000 0.700000
vt 0.500000 0.700000
vt 0.100000 0.800000
vt 0.000000 0.800000
vt 0.200000 0.800000
vt 0.300000 0.800000
vt 0.400000 0.800000
vt 0.500000 0.800000
vt 0.100000 0.900000
vt 0.000000 0.900000
vt 0.200000 0.900000
vt 0.300000 0.900000
vt 0.400000 0.900000
vt 0.500000 0.900000
vt 0.100000 1.000000
vt 0.000000 1.000000
vt 0.200000 1.000000
vt 0.300000 1.000000
vt 0.400000 1.000000
vt 0.500000 1.000000
s 1
usemtl standardSurface1.001
f 1/1/1 2/2/1 8/3/1 7/4/1
f 2/2/1 3/5/1 9/6/1 8/3/1
f 3/5/1 4/7/1 10/8/1 9/6/1
f 4/7/1 5/9/1 11/10/1 10/8/1
f 5/9/1 6/11/1 12/12/1 11/10/1
f 7/4/1 8/3/1 14/13/1 13/14/1
f 8/3/1 9/6/1 15/15/1 14/13/1
f 9/6/1 10/8/1 16/16/1 15/15/1
f 10/8/1 11/10/1 17/17/1 16/16/1
f 11/10/1 12/12/1 18/18/1 17/17/1
f 13/14/1 14/13/1 20/19/1 19/20/1
f 14/13/1 15/15/1 21/21/1 20/19/1
f 15/15/1 16/16/1 22/22/1 21/21/1
f 16/16/1 17/17/1 23/23/1 22/22/1
f 17/17/1 18/18/1 24/24/1 23/23/1
f 19/20/1 20/19/1 26/25/1 25/26/1
f 20/19/1 21/21/1 27/27/1 26/25/1
f 21/21/1 22/22/1 28/28/1 27/27/1
f 22/22/1 23/23/1 29/29/1 28/28/1
f 23/23/1 24/24/1 30/30/1 29/29/1
f 25/26/1 26/25/1 32/31/1 31/32/1
f 26/25/1 27/27/1 33/33/1 32/31/1
f 27/27/1 28/28/1 34/34/1 33/33/1
f 28/28/1 29/29/1 35/35/1 34/34/1
f 29/29/1 30/30/1 36/36/1 35/35/1
f 31/32/1 32/31/1 38/37/1 37/38/1
f 32/31/1 33/33/1 39/39/1 38/37/1
f 33/33/1 34/34/1 40/40/1 39/39/1
f 34/34/1 35/35/1 41/41/1 40/40/1
f 35/35/1 36/36/1 42/42/1 41/41/1
f 37/38/1 38/37/1 44/43/1 43/44/1
f 38/37/1 39/39/1 45/45/1 44/43/1
f 39/39/1 40/40/1 46/46/1 45/45/1
f 40/40/1 41/41/1 47/47/1 46/46/1
f 41/41/1 42/42/1 48/48/1 47/47/1
f 43/44/1 44/43/1 50/49/1 49/50/1
f 44/43/1 45/45/1 51/51/1 50/49/1
f 45/45/1 46/46/1 52/52/1 51/51/1
f 46/46/1 47/47/1 53/53/1 52/52/1
f 47/47/1 48/48/1 54/54/1 53/53/1
f 49/50/1 50/49/1 56/55/1 55/56/1
f 50/49/1 51/51/1 57/57/1 56/55/1
f 51/51/1 52/52/1 58/58/1 57/57/1
f 52/52/1 53/53/1 59/59/1 58/58/1
f 53/53/1 54/54/1 60/60/1 59/59/1
f 55/56/1 56/55/1 62/61/1 61/62/1
f 56/55/1 57/57/1 63/63/1 62/61/1
f 57/57/1 58/58/1 64/64/1 63/63/1
f 58/58/1 59/59/1 65/65/1 64/64/1
f 59/59/1 60/60/1 66/66/1 65/65/1
