# Blender 3.6.0
# www.blender.org
mtllib SM_Pillar_1.mtl
o SM_Pillar_1
v 0.755599 0.227137 0.238873
v 0.617143 0.227136 0.100416
v 0.617143 3.058380 0.100416
v 0.755599 3.058380 0.238872
v 0.238873 0.227136 0.100416
v 0.238873 3.058380 0.100416
v 0.100416 0.227137 0.238873
v 0.100416 3.058380 0.238872
v 0.100416 0.227137 0.617142
v 0.100416 3.058380 0.617142
v 0.238873 0.227137 0.755599
v 0.238873 3.058380 0.755599
v 0.617143 0.227137 0.755599
v 0.617143 3.058380 0.755599
v 0.755599 0.227137 0.617142
v 0.755599 3.058380 0.617142
v 0.617143 0.000000 0.100416
v 0.755599 0.000000 0.238873
v 0.428008 0.000000 0.428008
v 0.238873 0.000000 0.100416
v 0.100416 0.000000 0.238873
v 0.100416 0.000000 0.617142
v 0.238873 0.000000 0.755599
v 0.617143 0.000000 0.755599
v 0.755599 0.000000 0.617142
v 0.755599 3.298727 0.238872
v 0.617143 3.298727 0.100416
v 0.428008 3.298727 0.428007
v 0.238873 3.298727 0.100416
v 0.100416 3.298727 0.238872
v 0.100416 3.298727 0.617142
v 0.238873 3.298727 0.755599
v 0.617143 3.298727 0.755599
v 0.755599 3.298727 0.617142
v 0.856015 3.058380 0.180897
v 0.675118 3.058380 -0.000000
v 0.675118 3.298727 -0.000000
v 0.856015 3.298727 0.180897
v 0.180897 3.058380 -0.000000
v 0.180897 3.298727 -0.000000
v 0.000000 3.058380 0.180897
v 0.000000 3.298727 0.180897
v 0.000000 3.058380 0.675118
v 0.000000 3.298727 0.675118
v 0.180897 3.058380 0.856015
v 0.180897 3.298727 0.856015
v 0.675118 3.058380 0.856015
v 0.675118 3.298727 0.856015
v 0.856015 3.058380 0.675118
v 0.856015 3.298727 0.675118
v 0.675118 0.227137 -0.000000
v 0.856015 0.227137 0.180897
v 0.856015 0.000000 0.180897
v 0.675118 0.000000 0.000000
v 0.180897 0.000000 0.000000
v 0.180897 0.227137 -0.000000
v 0.000000 0.227137 0.180897
v 0.000000 0.000000 0.180897
v 0.000000 0.000000 0.675118
v 0.000000 0.227137 0.675118
v 0.180897 0.227137 0.856015
v 0.180897 0.000000 0.856015
v 0.675118 0.000000 0.856015
v 0.675118 0.227137 0.856015
v 0.856015 0.227137 0.675118
v 0.856015 0.000000 0.675118
vn 0.7071 -0.0000 -0.7071
vn -0.0000 -0.0000 -1.0000
vn -0.7071 -0.0000 -0.7071
vn -1.0000 -0.0000 -0.0000
vn -0.7071 -0.0000 0.7071
vn -0.0000 -0.0000 1.0000
vn 0.7071 -0.0000 0.7071
vn 1.0000 -0.0000 -0.0000
vn -0.0000 -1.0000 -0.0000
vn -0.0000 1.0000 -0.0000
vt 0.604960 0.000211
vt 0.658961 0.000211
vt 0.658961 0.781044
vt 0.604960 0.781044
vt 0.763285 0.000211
vt 0.763285 0.781044
vt 0.129983 0.000211
vt 0.183985 0.000211
vt 0.183985 0.781044
vt 0.129983 0.781044
vt 0.288309 0.000211
vt 0.288308 0.781044
vt 0.342310 0.000211
vt 0.342310 0.781044
vt 0.446634 0.000211
vt 0.446634 0.781044
vt 0.500636 0.000211
vt 0.500636 0.781044
vt 0.972095 0.406918
vt 0.933910 0.445103
vt 0.881748 0.354756
vt 0.972095 0.302594
vt 0.933910 0.264409
vt 0.829586 0.264409
vt 0.791401 0.302594
vt 0.791401 0.406918
vt 0.829586 0.445103
vt 0.933910 0.027905
vt 0.972095 0.066090
vt 0.881748 0.118252
vt 0.972095 0.170414
vt 0.933910 0.208599
vt 0.829586 0.208599
vt 0.791401 0.170414
vt 0.791401 0.066090
vt 0.829586 0.027905
vt 0.066497 0.620782
vt 0.066497 0.691337
vt 0.000211 0.691337
vt 0.000211 0.620782
vt 0.066497 0.827639
vt 0.000211 0.827639
vt 0.066497 0.000211
vt 0.066497 0.070766
vt 0.000211 0.070766
vt 0.000211 0.000211
vt 0.066497 0.207068
vt 0.000211 0.207068
vt 0.066497 0.277623
vt 0.000211 0.277623
vt 0.066497 0.413925
vt 0.000211 0.413925
vt 0.066497 0.484480
vt 0.000211 0.484480
vt 0.129561 0.136513
vt 0.129561 0.207068
vt 0.066919 0.207068
vt 0.066919 0.136513
vt 0.066919 0.000211
vt 0.129561 0.000211
vt 0.129561 0.757084
vt 0.129561 0.827639
vt 0.066919 0.827639
vt 0.066919 0.757084
vt 0.066919 0.620782
vt 0.129561 0.620782
vt 0.129561 0.550227
vt 0.066919 0.550227
vt 0.066919 0.413925
vt 0.129561 0.413925
vt 0.129561 0.343370
vt 0.066919 0.343370
vt 0.972095 0.539098
vt 0.933910 0.500913
vt 0.949899 0.473219
vt 0.999789 0.523108
vt 0.949899 0.000211
vt 0.999789 0.050101
vt 0.829586 0.500913
vt 0.813597 0.473219
vt 0.999789 0.186403
vt 0.791401 0.539098
vt 0.763707 0.523108
vt 0.949899 0.236293
vt 0.791401 0.643421
vt 0.763707 0.659411
vt 0.813597 0.236293
vt 0.829586 0.681606
vt 0.813597 0.709300
vt 0.763707 0.186403
vt 0.933910 0.681607
vt 0.949899 0.709300
vt 0.763707 0.050101
vt 0.972095 0.643421
vt 0.999789 0.659411
vt 0.813597 0.000211
vt 0.972095 0.775601
vt 0.933910 0.737416
vt 0.949899 0.709722
vt 0.999789 0.759612
vt 0.999789 0.422907
vt 0.949899 0.472797
vt 0.999789 0.286605
vt 0.999789 0.895914
vt 0.972095 0.879925
vt 0.933910 0.918110
vt 0.949899 0.945804
vt 0.949899 0.236715
vt 0.813597 0.236715
vt 0.813597 0.945804
vt 0.829586 0.918110
vt 0.791401 0.879925
vt 0.763707 0.895914
vt 0.763707 0.286605
vt 0.763707 0.422907
vt 0.763707 0.759612
vt 0.791401 0.775601
vt 0.829586 0.737416
vt 0.813597 0.709722
vt 0.813597 0.472797
s 0
usemtl lambert1SG
f 1/1/1 2/2/1 3/3/1 4/4/1
f 3/3/2 2/2/2 5/5/2 6/6/2
f 5/7/3 7/8/3 8/9/3 6/10/3
f 8/9/4 7/8/4 9/11/4 10/12/4
f 9/11/5 11/13/5 12/14/5 10/12/5
f 12/14/6 11/13/6 13/15/6 14/16/6
f 13/15/7 15/17/7 16/18/7 14/16/7
f 16/18/8 15/17/8 1/1/8 4/4/8
f 17/19/9 18/20/9 19/21/9
f 17/19/9 19/21/9 20/22/9
f 21/23/9 20/22/9 19/21/9
f 21/23/9 19/21/9 22/24/9
f 23/25/9 22/24/9 19/21/9
f 23/25/9 19/21/9 24/26/9
f 25/27/9 24/26/9 19/21/9
f 25/27/9 19/21/9 18/20/9
f 26/28/10 27/29/10 28/30/10
f 28/30/10 27/29/10 29/31/10
f 29/31/10 30/32/10 28/30/10
f 28/30/10 30/32/10 31/33/10
f 31/33/10 32/34/10 28/30/10
f 28/30/10 32/34/10 33/35/10
f 33/35/10 34/36/10 28/30/10
f 28/30/10 34/36/10 26/28/10
f 35/37/1 36/38/1 37/39/1 38/40/1
f 37/39/2 36/38/2 39/41/2 40/42/2
f 39/43/3 41/44/3 42/45/3 40/46/3
f 42/45/4 41/44/4 43/47/4 44/48/4
f 43/47/5 45/49/5 46/50/5 44/48/5
f 46/50/6 45/49/6 47/51/6 48/52/6
f 47/51/7 49/53/7 50/54/7 48/52/7
f 50/54/8 49/53/8 35/37/8 38/40/8
f 51/55/1 52/56/1 53/57/1 54/58/1
f 54/58/2 55/59/2 56/60/2 51/55/2
f 57/61/3 56/62/3 55/63/3 58/64/3
f 58/64/4 59/65/4 60/66/4 57/61/4
f 61/67/5 60/66/5 59/65/5 62/68/5
f 62/68/6 63/69/6 64/70/6 61/67/6
f 65/71/7 64/70/7 63/69/7 66/72/7
f 66/72/8 53/57/8 52/56/8 65/71/8
f 4/73/9 3/74/9 36/75/9 35/76/9
f 27/29/10 26/28/10 38/77/10 37/78/10
f 36/75/9 3/74/9 6/79/9 39/80/9
f 37/78/10 40/81/10 29/31/10 27/29/10
f 6/79/9 8/82/9 41/83/9 39/80/9
f 30/32/10 29/31/10 40/81/10 42/84/10
f 41/83/9 8/82/9 10/85/9 43/86/9
f 42/84/10 44/87/10 31/33/10 30/32/10
f 10/85/9 12/88/9 45/89/9 43/86/9
f 32/34/10 31/33/10 44/87/10 46/90/10
f 45/89/9 12/88/9 14/91/9 47/92/9
f 46/90/10 48/93/10 33/35/10 32/34/10
f 14/91/9 16/94/9 49/95/9 47/92/9
f 34/36/10 33/35/10 48/93/10 50/96/10
f 49/95/9 16/94/9 4/73/9 35/76/9
f 50/96/10 38/77/10 26/28/10 34/36/10
f 2/97/10 1/98/10 52/99/10 51/100/10
f 18/20/9 17/19/9 54/101/9 53/102/9
f 54/101/9 17/19/9 20/22/9 55/103/9
f 51/100/10 56/104/10 5/105/10 2/97/10
f 7/106/10 5/105/10 56/104/10 57/107/10
f 20/22/9 21/23/9 58/108/9 55/103/9
f 58/108/9 21/23/9 22/24/9 59/109/9
f 57/107/10 60/110/10 9/111/10 7/106/10
f 11/112/10 9/111/10 60/110/10 61/113/10
f 22/24/9 23/25/9 62/114/9 59/109/9
f 62/114/9 23/25/9 24/26/9 63/115/9
f 61/113/10 64/116/10 13/117/10 11/112/10
f 15/118/10 13/117/10 64/116/10 65/119/10
f 24/26/9 25/27/9 66/120/9 63/115/9
f 66/120/9 25/27/9 18/20/9 53/102/9
f 65/119/10 52/99/10 1/98/10 15/118/10
