# Blender 3.6.0
# www.blender.org
mtllib SM_Wall_Broken3.mtl
o WallBroken3
v 1.531454 1.016003 0.002239
v 1.531454 1.048421 0.033516
v 1.561532 1.000745 0.048237
v 1.531454 0.524430 0.033516
v 1.531454 0.556848 0.002240
v 1.561532 0.572106 0.048237
v 1.561532 1.000745 0.461791
v 1.531454 1.048421 0.476513
v 1.531454 1.016003 0.507789
v 1.561532 0.572106 0.461791
v 1.531454 0.556848 0.507789
v 1.531454 0.524430 0.476513
v 0.535921 1.016003 0.002239
v 0.505843 1.000745 0.048237
v 0.535921 1.048421 0.033516
v 0.505843 0.572106 0.048237
v 0.535921 0.556848 0.002240
v 0.535921 0.524430 0.033516
v 0.505843 1.000745 0.461791
v 0.535921 1.016003 0.507789
v 0.535921 1.048421 0.476513
v 0.535921 0.524430 0.476513
v 0.535921 0.556848 0.507789
v 0.505843 0.572106 0.461791
v 1.031454 0.491516 0.002240
v 1.031454 0.523934 0.033516
v 1.061532 0.476258 0.048237
v 1.031454 -0.000057 0.033516
v 1.031454 0.032361 0.002240
v 1.061532 0.047619 0.048238
v 1.061532 0.476258 0.461791
v 1.031454 0.523934 0.476513
v 1.031454 0.491516 0.507789
v 1.061532 0.047619 0.461791
v 1.031454 0.032361 0.507789
v 1.031454 -0.000057 0.476513
v 0.035921 0.491516 0.002240
v 0.005843 0.476258 0.048237
v 0.035921 0.523934 0.033516
v 0.005843 0.047619 0.048238
v 0.035921 0.032361 0.002240
v 0.035921 -0.000057 0.033516
v 0.005843 0.476258 0.461791
v 0.035921 0.491516 0.507789
v 0.035921 0.523934 0.476513
v 0.035921 -0.000057 0.476513
v 0.035921 0.032361 0.507789
v 0.005843 0.047619 0.461791
v 2.101866 0.491516 0.002240
v 2.101866 0.523934 0.033516
v 2.131943 0.476258 0.048237
v 2.101866 -0.000057 0.033516
v 2.101866 0.032361 0.002240
v 2.131943 0.047619 0.048238
v 2.131943 0.476258 0.461791
v 2.101866 0.523934 0.476513
v 2.101866 0.491516 0.507789
v 2.131943 0.047619 0.461791
v 2.101866 0.032361 0.507789
v 2.101866 -0.000057 0.476513
v 1.106332 0.491516 0.002240
v 1.076254 0.476258 0.048237
v 1.106332 0.523934 0.033516
v 1.076254 0.047619 0.048238
v 1.106332 0.032361 0.002240
v 1.106332 -0.000057 0.033516
v 1.076254 0.476258 0.461791
v 1.106332 0.491516 0.507789
v 1.106332 0.523934 0.476513
v 1.106332 -0.000057 0.476513
v 1.106332 0.032361 0.507789
v 1.076254 0.047619 0.461791
v 2.591454 1.016003 0.002239
v 2.591454 1.048421 0.033516
v 2.621532 1.000745 0.048237
v 2.591454 0.524430 0.033516
v 2.591454 0.556848 0.002240
v 2.621532 0.572106 0.048237
v 2.621532 1.000745 0.461791
v 2.591454 1.048421 0.476513
v 2.591454 1.016003 0.507789
v 2.621532 0.572106 0.461791
v 2.591454 0.556848 0.507789
v 2.591454 0.524430 0.476513
v 1.595921 1.016003 0.002239
v 1.565843 1.000745 0.048237
v 1.595921 1.048421 0.033516
v 1.565843 0.572106 0.048237
v 1.595921 0.556848 0.002240
v 1.595921 0.524430 0.033516
v 1.565843 1.000745 0.461791
v 1.595921 1.016003 0.507789
v 1.595921 1.048421 0.476513
v 1.595921 0.524430 0.476513
v 1.595921 0.556848 0.507789
v 1.565843 0.572106 0.461791
v 3.663241 1.016003 0.002239
v 3.663241 1.048421 0.033516
v 3.693319 1.000745 0.048237
v 3.663241 0.524430 0.033516
v 3.663241 0.556848 0.002240
v 3.693319 0.572106 0.048237
v 3.693319 1.000745 0.461791
v 3.663241 1.048421 0.476513
v 3.663241 1.016003 0.507789
v 3.693319 0.572106 0.461791
v 3.663241 0.556848 0.507789
v 3.663241 0.524430 0.476513
v 2.667708 1.016003 0.002239
v 2.637630 1.000745 0.048237
v 2.667708 1.048421 0.033516
v 2.637630 0.572106 0.048237
v 2.667708 0.556848 0.002240
v 2.667708 0.524430 0.033516
v 2.637630 1.000745 0.461791
v 2.667708 1.016003 0.507789
v 2.667708 1.048421 0.476513
v 2.667708 0.524430 0.476513
v 2.667708 0.556848 0.507789
v 2.637630 0.572106 0.461791
v 3.163241 0.491516 0.002240
v 3.163241 0.523934 0.033516
v 3.193319 0.476258 0.048237
v 3.163241 -0.000057 0.033516
v 3.163241 0.032361 0.002240
v 3.193319 0.047619 0.048238
v 3.193319 0.476258 0.461791
v 3.163241 0.523934 0.476513
v 3.163241 0.491516 0.507789
v 3.193319 0.047619 0.461791
v 3.163241 0.032361 0.507789
v 3.163241 -0.000057 0.476513
v 2.167708 0.491516 0.002240
v 2.137630 0.476258 0.048237
v 2.167708 0.523934 0.033516
v 2.137630 0.047619 0.048238
v 2.167708 0.032361 0.002240
v 2.167708 -0.000057 0.033516
v 2.137630 0.476258 0.461791
v 2.167708 0.491516 0.507789
v 2.167708 0.523934 0.476513
v 2.167708 -0.000057 0.476513
v 2.167708 0.032361 0.507789
v 2.137630 0.047619 0.461791
v 1.531454 2.064481 0.002239
v 1.531454 2.096899 0.033515
v 1.561532 2.049223 0.048237
v 1.531454 1.572908 0.033516
v 1.531454 1.605325 0.002239
v 1.561532 1.620584 0.048237
v 1.561532 2.049223 0.461791
v 1.531454 2.096899 0.476513
v 1.531454 2.064481 0.507789
v 1.561532 1.620584 0.461791
v 1.531454 1.605326 0.507789
v 1.531454 1.572908 0.476513
v 0.535921 2.064481 0.002239
v 0.505843 2.049223 0.048237
v 0.535921 2.096899 0.033515
v 0.505843 1.620584 0.048237
v 0.535921 1.605325 0.002239
v 0.535921 1.572908 0.033516
v 0.505843 2.049223 0.461791
v 0.535921 2.064481 0.507789
v 0.535921 2.096899 0.476513
v 0.535921 1.572908 0.476513
v 0.535921 1.605326 0.507789
v 0.505843 1.620584 0.461791
v 1.031454 1.539994 0.002239
v 1.031454 1.572412 0.033516
v 1.061532 1.524735 0.048237
v 1.031454 1.048421 0.033516
v 1.031454 1.080838 0.002239
v 1.061532 1.096097 0.048237
v 1.061532 1.524736 0.461791
v 1.031454 1.572412 0.476513
v 1.031454 1.539994 0.507789
v 1.061532 1.096097 0.461791
v 1.031454 1.080838 0.507789
v 1.031454 1.048421 0.476513
v 0.035921 1.539994 0.002239
v 0.005843 1.524735 0.048237
v 0.035921 1.572412 0.033516
v 0.005843 1.096097 0.048237
v 0.035921 1.080838 0.002239
v 0.035921 1.048421 0.033516
v 0.005843 1.524736 0.461791
v 0.035921 1.539994 0.507789
v 0.035921 1.572412 0.476513
v 0.035921 1.048421 0.476513
v 0.035921 1.080838 0.507789
v 0.005843 1.096097 0.461791
v 2.101866 1.539994 0.002239
v 2.101866 1.572412 0.033516
v 2.131943 1.524735 0.048237
v 2.101866 1.048421 0.033516
v 2.101866 1.080838 0.002239
v 2.131943 1.096097 0.048237
v 2.131943 1.524736 0.461791
v 2.101866 1.572412 0.476513
v 2.101866 1.539994 0.507789
v 2.131943 1.096097 0.461791
v 2.101866 1.080838 0.507789
v 2.101866 1.048421 0.476513
v 1.106332 1.539994 0.002239
v 1.076254 1.524735 0.048237
v 1.106332 1.572412 0.033516
v 1.076254 1.096097 0.048237
v 1.106332 1.080838 0.002239
v 1.106332 1.048421 0.033516
v 1.076254 1.524736 0.461791
v 1.106332 1.539994 0.507789
v 1.106332 1.572412 0.476513
v 1.106332 1.048421 0.476513
v 1.106332 1.080838 0.507789
v 1.076254 1.096097 0.461791
v 3.163241 1.539994 0.002239
v 3.163241 1.572412 0.033516
v 3.193319 1.524735 0.048237
v 3.163241 1.048421 0.033516
v 3.163241 1.080838 0.002239
v 3.193319 1.096097 0.048237
v 3.193319 1.524736 0.461791
v 3.163241 1.572412 0.476513
v 3.163241 1.539994 0.507789
v 3.193319 1.096097 0.461791
v 3.163241 1.080838 0.507789
v 3.163241 1.048421 0.476513
v 2.167708 1.539994 0.002239
v 2.137630 1.524735 0.048237
v 2.167708 1.572412 0.033516
v 2.137630 1.096097 0.048237
v 2.167708 1.080838 0.002239
v 2.167708 1.048421 0.033516
v 2.137630 1.524736 0.461791
v 2.167708 1.539994 0.507789
v 2.167708 1.572412 0.476513
v 2.167708 1.048421 0.476513
v 2.167708 1.080838 0.507789
v 2.137630 1.096097 0.461791
vn -0.2964 -0.8809 -0.3690
vn 0.2964 -0.8815 -0.3677
vn 0.2964 -0.8809 0.3690
vn -0.2964 -0.8815 0.3677
vn -0.9378 -0.2415 0.2493
vn -0.9378 0.2416 0.2493
vn -0.9378 0.2415 -0.2493
vn -0.9378 -0.2416 -0.2493
vn 0.2958 -0.3582 0.8856
vn 0.2958 0.3575 0.8858
vn -0.2958 0.3582 0.8856
vn -0.2958 -0.3575 0.8858
vn 0.2964 0.8809 -0.3690
vn -0.2964 0.8815 -0.3677
vn -0.2964 0.8809 0.3690
vn 0.2964 0.8815 0.3677
vn 0.9378 -0.2415 -0.2493
vn 0.9378 0.2416 -0.2493
vn 0.9378 0.2415 0.2493
vn 0.9378 -0.2416 0.2493
vn 0.2958 0.3567 -0.8862
vn 0.2959 -0.3611 -0.8844
vn -0.2959 0.3611 -0.8844
vn -0.2958 -0.3567 -0.8862
vn -0.9378 0.2416 -0.2493
vn 0.9378 0.2416 0.2493
vt 0.976037 0.775199
vt 0.779976 0.972856
vt 0.622844 0.778991
vt 0.778782 0.630357
vt 0.792367 0.599598
vt 0.619078 0.427583
vt 0.791094 0.254294
vt 0.964383 0.426309
vt 0.609375 0.764850
vt 0.454249 0.600077
vt 0.605851 0.453504
vt 0.763447 0.615707
vt 0.276140 0.423811
vt 0.436892 0.274532
vt 0.592625 0.439940
vt 0.439779 0.585281
vt 0.419396 0.961725
vt 0.248451 0.785951
vt 0.424224 0.615007
vt 0.595169 0.790780
vt 0.261333 0.409365
vt 0.249485 0.438987
vt 0.794480 0.999909
vt 0.754202 0.994685
vt 0.423047 0.257685
vt 0.454809 0.247724
vt 0.993734 0.752221
vt 0.999908 0.786716
vt 0.000091 0.280828
vt 0.011348 0.242164
vt 0.301995 0.005239
vt 0.335152 0.000091
s 1
usemtl Material.019
f 18/1/1 4/2/2 12/3/3 22/4/4
f 24/5/5 19/6/6 14/7/7 16/8/8
f 11/9/9 9/10/10 20/11/11 23/12/12
f 2/13/13 15/14/14 21/15/15 8/16/16
f 6/17/17 3/18/18 7/19/19 10/20/20
f 1/21/21 2/13/13 3/22/18
f 4/2/2 5/23/22 6/24/17
f 7/19/19 8/16/16 9/10/10
f 10/20/20 11/9/9 12/3/3
f 13/25/23 14/26/7 15/14/14
f 16/27/8 17/28/24 18/1/1
f 19/6/6 20/11/11 21/15/15
f 22/4/4 23/12/12 24/5/5
f 18/1/1 22/4/4 24/5/5 16/27/8
f 4/2/2 18/1/1 17/28/24 5/23/22
f 3/22/18 6/29/17 5/30/22 1/21/21
f 23/12/12 20/11/11 19/6/6 24/5/5
f 9/10/10 11/9/9 10/20/20 7/19/19
f 13/25/23 17/31/24 16/32/8 14/26/7
f 8/16/16 21/15/15 20/11/11 9/10/10
f 2/13/13 8/16/16 7/19/19 3/22/18
f 22/4/4 12/3/3 11/9/9 23/12/12
f 21/15/15 15/14/14 14/26/7 19/6/6
f 15/14/14 2/13/13 1/21/21 13/25/23
f 12/3/3 4/2/2 6/24/17 10/20/20
f 17/31/24 13/25/23 1/21/21 5/30/22
f 42/1/1 28/2/2 36/3/3 46/4/4
f 48/5/5 43/6/6 38/7/7 40/8/8
f 35/9/9 33/10/10 44/11/11 47/12/12
f 26/13/13 39/14/14 45/15/15 32/16/16
f 30/17/17 27/18/18 31/19/19 34/20/20
f 25/21/21 26/13/13 27/22/18
f 28/2/2 29/23/22 30/24/17
f 31/19/19 32/16/16 33/10/10
f 34/20/20 35/9/9 36/3/3
f 37/25/23 38/26/7 39/14/14
f 40/27/8 41/28/24 42/1/1
f 43/6/6 44/11/11 45/15/15
f 46/4/4 47/12/12 48/5/5
f 42/1/1 46/4/4 48/5/5 40/27/8
f 28/2/2 42/1/1 41/28/24 29/23/22
f 27/22/18 30/29/17 29/30/22 25/21/21
f 47/12/12 44/11/11 43/6/6 48/5/5
f 33/10/10 35/9/9 34/20/20 31/19/19
f 37/25/23 41/31/24 40/32/8 38/26/7
f 32/16/16 45/15/15 44/11/11 33/10/10
f 26/13/13 32/16/16 31/19/19 27/22/18
f 46/4/4 36/3/3 35/9/9 47/12/12
f 45/15/15 39/14/14 38/26/7 43/6/6
f 39/14/14 26/13/13 25/21/21 37/25/23
f 36/3/3 28/2/2 30/24/17 34/20/20
f 41/31/24 37/25/23 25/21/21 29/30/22
f 66/1/1 52/2/2 60/3/3 70/4/4
f 72/5/5 67/6/6 62/7/7 64/8/8
f 59/9/9 57/10/10 68/11/11 71/12/12
f 50/13/13 63/14/14 69/15/15 56/16/16
f 54/17/17 51/18/18 55/19/19 58/20/20
f 49/21/21 50/13/13 51/22/18
f 52/2/2 53/23/22 54/24/17
f 55/19/19 56/16/16 57/10/10
f 58/20/20 59/9/9 60/3/3
f 61/25/23 62/26/7 63/14/14
f 64/27/8 65/28/24 66/1/1
f 67/6/6 68/11/11 69/15/15
f 70/4/4 71/12/12 72/5/5
f 66/1/1 70/4/4 72/5/5 64/27/8
f 52/2/2 66/1/1 65/28/24 53/23/22
f 51/22/18 54/29/17 53/30/22 49/21/21
f 71/12/12 68/11/11 67/6/6 72/5/5
f 57/10/10 59/9/9 58/20/20 55/19/19
f 61/25/23 65/31/24 64/32/8 62/26/7
f 56/16/16 69/15/15 68/11/11 57/10/10
f 50/13/13 56/16/16 55/19/19 51/22/18
f 70/4/4 60/3/3 59/9/9 71/12/12
f 69/15/15 63/14/14 62/26/7 67/6/6
f 63/14/14 50/13/13 49/21/21 61/25/23
f 60/3/3 52/2/2 54/24/17 58/20/20
f 65/31/24 61/25/23 49/21/21 53/30/22
f 90/1/1 76/2/2 84/3/3 94/4/4
f 96/5/5 91/6/6 86/7/7 88/8/8
f 83/9/9 81/10/10 92/11/11 95/12/12
f 74/13/13 87/14/14 93/15/15 80/16/16
f 78/17/17 75/18/18 79/19/19 82/20/20
f 73/21/21 74/13/13 75/22/18
f 76/2/2 77/23/22 78/24/17
f 79/19/19 80/16/16 81/10/10
f 82/20/20 83/9/9 84/3/3
f 85/25/23 86/26/7 87/14/14
f 88/27/8 89/28/24 90/1/1
f 91/6/6 92/11/11 93/15/15
f 94/4/4 95/12/12 96/5/5
f 90/1/1 94/4/4 96/5/5 88/27/8
f 76/2/2 90/1/1 89/28/24 77/23/22
f 75/22/18 78/29/17 77/30/22 73/21/21
f 95/12/12 92/11/11 91/6/6 96/5/5
f 81/10/10 83/9/9 82/20/20 79/19/19
f 85/25/23 89/31/24 88/32/8 86/26/7
f 80/16/16 93/15/15 92/11/11 81/10/10
f 74/13/13 80/16/16 79/19/19 75/22/18
f 94/4/4 84/3/3 83/9/9 95/12/12
f 93/15/15 87/14/14 86/26/7 91/6/6
f 87/14/14 74/13/13 73/21/21 85/25/23
f 84/3/3 76/2/2 78/24/17 82/20/20
f 89/31/24 85/25/23 73/21/21 77/30/22
f 114/1/1 100/2/2 108/3/3 118/4/4
f 120/5/5 115/6/6 110/7/25 112/8/8
f 107/9/9 105/10/10 116/11/11 119/12/12
f 98/13/13 111/14/14 117/15/15 104/16/16
f 102/17/17 99/18/18 103/19/19 106/20/20
f 97/21/21 98/13/13 99/22/18
f 100/2/2 101/23/22 102/24/17
f 103/19/19 104/16/16 105/10/10
f 106/20/20 107/9/9 108/3/3
f 109/25/23 110/26/25 111/14/14
f 112/27/8 113/28/24 114/1/1
f 115/6/6 116/11/11 117/15/15
f 118/4/4 119/12/12 120/5/5
f 114/1/1 118/4/4 120/5/5 112/27/8
f 100/2/2 114/1/1 113/28/24 101/23/22
f 99/22/18 102/29/17 101/30/22 97/21/21
f 119/12/12 116/11/11 115/6/6 120/5/5
f 105/10/10 107/9/9 106/20/20 103/19/19
f 109/25/23 113/31/24 112/32/8 110/26/25
f 104/16/16 117/15/15 116/11/11 105/10/10
f 98/13/13 104/16/16 103/19/19 99/22/18
f 118/4/4 108/3/3 107/9/9 119/12/12
f 117/15/15 111/14/14 110/26/25 115/6/6
f 111/14/14 98/13/13 97/21/21 109/25/23
f 108/3/3 100/2/2 102/24/17 106/20/20
f 113/31/24 109/25/23 97/21/21 101/30/22
f 138/1/1 124/2/2 132/3/3 142/4/4
f 144/5/5 139/6/6 134/7/7 136/8/8
f 131/9/9 129/10/10 140/11/11 143/12/12
f 122/13/13 135/14/14 141/15/15 128/16/16
f 126/17/17 123/18/18 127/19/19 130/20/20
f 121/21/21 122/13/13 123/22/18
f 124/2/2 125/23/22 126/24/17
f 127/19/19 128/16/16 129/10/10
f 130/20/20 131/9/9 132/3/3
f 133/25/23 134/26/7 135/14/14
f 136/27/8 137/28/24 138/1/1
f 139/6/6 140/11/11 141/15/15
f 142/4/4 143/12/12 144/5/5
f 138/1/1 142/4/4 144/5/5 136/27/8
f 124/2/2 138/1/1 137/28/24 125/23/22
f 123/22/18 126/29/17 125/30/22 121/21/21
f 143/12/12 140/11/11 139/6/6 144/5/5
f 129/10/10 131/9/9 130/20/20 127/19/19
f 133/25/23 137/31/24 136/32/8 134/26/7
f 128/16/16 141/15/15 140/11/11 129/10/10
f 122/13/13 128/16/16 127/19/19 123/22/18
f 142/4/4 132/3/3 131/9/9 143/12/12
f 141/15/15 135/14/14 134/26/7 139/6/6
f 135/14/14 122/13/13 121/21/21 133/25/23
f 132/3/3 124/2/2 126/24/17 130/20/20
f 137/31/24 133/25/23 121/21/21 125/30/22
f 162/1/1 148/2/2 156/3/3 166/4/4
f 168/5/5 163/6/6 158/7/7 160/8/8
f 155/9/9 153/10/10 164/11/11 167/12/12
f 146/13/13 159/14/14 165/15/15 152/16/16
f 150/17/17 147/18/18 151/19/26 154/20/20
f 145/21/21 146/13/13 147/22/18
f 148/2/2 149/23/22 150/24/17
f 151/19/26 152/16/16 153/10/10
f 154/20/20 155/9/9 156/3/3
f 157/25/23 158/26/7 159/14/14
f 160/27/8 161/28/24 162/1/1
f 163/6/6 164/11/11 165/15/15
f 166/4/4 167/12/12 168/5/5
f 162/1/1 166/4/4 168/5/5 160/27/8
f 148/2/2 162/1/1 161/28/24 149/23/22
f 147/22/18 150/29/17 149/30/22 145/21/21
f 167/12/12 164/11/11 163/6/6 168/5/5
f 153/10/10 155/9/9 154/20/20 151/19/26
f 157/25/23 161/31/24 160/32/8 158/26/7
f 152/16/16 165/15/15 164/11/11 153/10/10
f 146/13/13 152/16/16 151/19/26 147/22/18
f 166/4/4 156/3/3 155/9/9 167/12/12
f 165/15/15 159/14/14 158/26/7 163/6/6
f 159/14/14 146/13/13 145/21/21 157/25/23
f 156/3/3 148/2/2 150/24/17 154/20/20
f 161/31/24 157/25/23 145/21/21 149/30/22
f 186/1/1 172/2/2 180/3/3 190/4/4
f 192/5/5 187/6/6 182/7/7 184/8/8
f 179/9/9 177/10/10 188/11/11 191/12/12
f 170/13/13 183/14/14 189/15/15 176/16/16
f 174/17/17 171/18/18 175/19/19 178/20/20
f 169/21/21 170/13/13 171/22/18
f 172/2/2 173/23/22 174/24/17
f 175/19/19 176/16/16 177/10/10
f 178/20/20 179/9/9 180/3/3
f 181/25/23 182/26/7 183/14/14
f 184/27/8 185/28/24 186/1/1
f 187/6/6 188/11/11 189/15/15
f 190/4/4 191/12/12 192/5/5
f 186/1/1 190/4/4 192/5/5 184/27/8
f 172/2/2 186/1/1 185/28/24 173/23/22
f 171/22/18 174/29/17 173/30/22 169/21/21
f 191/12/12 188/11/11 187/6/6 192/5/5
f 177/10/10 179/9/9 178/20/20 175/19/19
f 181/25/23 185/31/24 184/32/8 182/26/7
f 176/16/16 189/15/15 188/11/11 177/10/10
f 170/13/13 176/16/16 175/19/19 171/22/18
f 190/4/4 180/3/3 179/9/9 191/12/12
f 189/15/15 183/14/14 182/26/7 187/6/6
f 183/14/14 170/13/13 169/21/21 181/25/23
f 180/3/3 172/2/2 174/24/17 178/20/20
f 185/31/24 181/25/23 169/21/21 173/30/22
f 210/1/1 196/2/2 204/3/3 214/4/4
f 216/5/5 211/6/6 206/7/7 208/8/8
f 203/9/9 201/10/10 212/11/11 215/12/12
f 194/13/13 207/14/14 213/15/15 200/16/16
f 198/17/17 195/18/18 199/19/19 202/20/20
f 193/21/21 194/13/13 195/22/18
f 196/2/2 197/23/22 198/24/17
f 199/19/19 200/16/16 201/10/10
f 202/20/20 203/9/9 204/3/3
f 205/25/23 206/26/7 207/14/14
f 208/27/8 209/28/24 210/1/1
f 211/6/6 212/11/11 213/15/15
f 214/4/4 215/12/12 216/5/5
f 210/1/1 214/4/4 216/5/5 208/27/8
f 196/2/2 210/1/1 209/28/24 197/23/22
f 195/22/18 198/29/17 197/30/22 193/21/21
f 215/12/12 212/11/11 211/6/6 216/5/5
f 201/10/10 203/9/9 202/20/20 199/19/19
f 205/25/23 209/31/24 208/32/8 206/26/7
f 200/16/16 213/15/15 212/11/11 201/10/10
f 194/13/13 200/16/16 199/19/19 195/22/18
f 214/4/4 204/3/3 203/9/9 215/12/12
f 213/15/15 207/14/14 206/26/7 211/6/6
f 207/14/14 194/13/13 193/21/21 205/25/23
f 204/3/3 196/2/2 198/24/17 202/20/20
f 209/31/24 205/25/23 193/21/21 197/30/22
f 234/1/1 220/2/2 228/3/3 238/4/4
f 240/5/5 235/6/6 230/7/7 232/8/8
f 227/9/9 225/10/10 236/11/11 239/12/12
f 218/13/13 231/14/14 237/15/15 224/16/16
f 222/17/17 219/18/18 223/19/19 226/20/20
f 217/21/21 218/13/13 219/22/18
f 220/2/2 221/23/22 222/24/17
f 223/19/19 224/16/16 225/10/10
f 226/20/20 227/9/9 228/3/3
f 229/25/23 230/26/7 231/14/14
f 232/27/8 233/28/24 234/1/1
f 235/6/6 236/11/11 237/15/15
f 238/4/4 239/12/12 240/5/5
f 234/1/1 238/4/4 240/5/5 232/27/8
f 220/2/2 234/1/1 233/28/24 221/23/22
f 219/22/18 222/29/17 221/30/22 217/21/21
f 239/12/12 236/11/11 235/6/6 240/5/5
f 225/10/10 227/9/9 226/20/20 223/19/19
f 229/25/23 233/31/24 232/32/8 230/26/7
f 224/16/16 237/15/15 236/11/11 225/10/10
f 218/13/13 224/16/16 223/19/19 219/22/18
f 238/4/4 228/3/3 227/9/9 239/12/12
f 237/15/15 231/14/14 230/26/7 235/6/6
f 231/14/14 218/13/13 217/21/21 229/25/23
f 228/3/3 220/2/2 222/24/17 226/20/20
f 233/31/24 229/25/23 217/21/21 221/30/22
