# This file uses centimeters as units for non-parametric coordinates.

mtllib SM_WallCornerTop.mtl
g default
v 0.870000 3.100000 0.000000
v 0.000000 3.100000 1.100000
v 1.100000 3.100000 0.869714
v 1.100000 3.100000 0.000000
v 0.000000 3.100000 0.870000
v 1.230278 2.587353 0.000000
v 1.230278 3.100000 0.000000
v 1.230278 3.100000 1.100000
v 1.230278 2.587353 1.100000
v 1.100000 2.587353 1.230278
v 1.100000 3.100000 1.230278
v 0.000000 3.100000 1.230278
v 0.000000 2.587353 1.230278
v 0.875714 3.100000 1.100000
v 0.874186 3.100000 0.637354
v 0.643063 3.100000 0.870000
v 0.643063 2.890372 0.870000
v 0.874186 2.889654 0.637354
v 1.100000 2.487353 1.100000
v 1.100000 2.487353 0.000000
v 0.870000 2.487353 0.000000
v 0.000000 2.487353 1.100000
v 0.000000 2.487353 0.870000
vt 0.659422 0.607284
vt 0.645447 0.642659
vt 0.410539 0.664250
vt 0.391622 0.622474
vt 0.105118 0.597348
vt 0.052671 0.744335
vt 0.000087 0.726091
vt 0.048684 0.586023
vt 0.709849 0.743643
vt 0.714249 0.597318
vt 0.754693 0.728637
vt 0.676488 0.754895
vt 0.471144 0.811452
vt 0.411993 0.786807
vt 0.680267 0.786221
vt 0.075914 0.845985
vt 0.082538 0.788197
vt 0.302563 0.813419
vt 0.237484 0.864506
vt 0.370418 0.660848
vt 0.362667 0.787146
vt 0.086291 0.755465
vt 0.120146 0.643016
vt 0.345331 0.854391
vt 0.431394 0.854936
vt 0.703745 0.988949
vt 0.539337 0.909624
vt 0.533566 0.859008
vt 0.686940 0.841524
vt 0.058269 0.999913
vt 0.231447 0.917175
vt 0.433228 0.941664
vt 0.345431 0.941978
vt 0.433430 0.997979
vt 0.345632 0.998101
vn 0.608874 -0.793267 0.000000
vn 0.608874 -0.793267 0.000000
vn 0.608874 -0.793267 0.000000
vn 0.608874 -0.793267 0.000000
vn -1.000000 0.000000 0.000000
vn -1.000000 0.000000 0.000000
vn -1.000000 0.000000 0.000000
vn -1.000000 0.000000 0.000000
vn 0.000000 0.000000 -1.000000
vn 0.000000 0.000000 -1.000000
vn 0.000000 0.000000 -1.000000
vn 0.000000 0.000000 -1.000000
vn 0.000000 0.000000 -1.000000
vn 0.000000 0.000000 -1.000000
vn 0.000000 0.000000 -1.000000
vn 0.000000 0.000000 -1.000000
vn -0.000000 1.000000 -0.000000
vn -0.000000 1.000000 -0.000000
vn -0.000000 1.000000 -0.000000
vn -0.000000 1.000000 -0.000000
vn -0.000000 1.000000 -0.000000
vn -0.000000 1.000000 -0.000000
vn -0.000000 1.000000 -0.000000
vn -0.000000 1.000000 -0.000000
vn 0.000000 0.000000 1.000000
vn 0.000000 0.000000 1.000000
vn 0.000000 0.000000 1.000000
vn 0.000000 0.000000 1.000000
vn 0.707107 -0.000000 0.707107
vn 0.707107 -0.000000 0.707107
vn 0.707107 -0.000000 0.707107
vn 0.707107 -0.000000 0.707107
vn -0.000000 1.000000 -0.000000
vn -0.000000 1.000000 -0.000000
vn -0.000000 1.000000 -0.000000
vn -0.000000 1.000000 -0.000000
vn -1.000000 0.000000 0.000000
vn -1.000000 0.000000 0.000000
vn -1.000000 0.000000 0.000000
vn -1.000000 0.000000 0.000000
vn 0.000000 -0.793267 0.608874
vn 0.000000 -0.793267 0.608874
vn 0.000000 -0.793267 0.608874
vn 0.000000 -0.793267 0.608874
vn 0.520096 -0.677495 0.520096
vn 0.520096 -0.677495 0.520096
vn 0.520096 -0.677495 0.520096
vn 1.000000 0.000000 0.000000
vn 1.000000 0.000000 0.000000
vn 1.000000 0.000000 0.000000
vn 1.000000 0.000000 0.000000
vn -0.000000 1.000000 -0.000000
vn -0.000000 1.000000 -0.000000
vn -0.000000 1.000000 -0.000000
vn -0.000000 1.000000 -0.000000
vn -0.999978 0.000000 0.006600
vn -0.999978 0.000000 0.006600
vn -0.999978 0.000000 0.006600
vn -0.999978 0.000000 0.006600
vn 0.000000 0.000000 -1.000000
vn 0.000000 0.000000 -1.000000
vn 0.000000 0.000000 -1.000000
vn 0.000000 0.000000 -1.000000
vn -0.000000 1.000000 -0.000000
vn -0.000000 1.000000 -0.000000
vn -0.000000 1.000000 -0.000000
vn -0.000000 1.000000 -0.000000
vn -0.000000 1.000000 -0.000000
vn -0.000000 1.000000 -0.000000
vn -0.000000 1.000000 -0.000000
vn -0.000000 1.000000 -0.000000
vn -0.709403 0.000000 -0.704803
vn -0.709403 0.000000 -0.704803
vn -0.709403 0.000000 -0.704803
vn -0.709403 0.000000 -0.704803
s off
g SM_WallCornerTop:Mesh
usemtl lambert1SG
f 20/1/1 6/2/2 9/3/3 19/4/4
f 22/5/5 2/6/6 5/7/7 23/8/8
f 4/9/9 20/1/10 21/10/11 1/11/12
f 4/9/13 7/12/14 6/2/15 20/1/16
f 3/13/17 8/14/18 7/12/19 4/15/20
f 5/16/21 2/17/22 14/18/23 16/19/24
f 10/20/25 11/21/26 12/22/27 13/23/28
f 10/20/29 9/3/30 8/14/31 11/21/32
f 14/24/33 11/21/34 8/14/35 3/25/36
f 22/5/37 13/23/38 12/22/39 2/6/40
f 19/4/41 10/20/42 13/23/43 22/5/44
f 9/3/45 10/20/46 19/4/47
f 6/2/48 7/12/49 8/14/50 9/3/51
f 2/17/52 12/22/53 11/21/54 14/18/55
f 21/26/56 18/27/57 15/28/58 1/29/59
f 23/30/60 5/16/61 16/19/62 17/31/63
f 3/13/64 4/15/65 1/29/66 15/28/67
f 15/32/68 16/33/69 14/24/70 3/25/71
f 15/32/72 18/34/73 17/35/74 16/33/75
