# This file uses centimeters as units for non-parametric coordinates.

mtllib SM_WallCornerBottom.mtl
g default
v 0.000000 0.000092 1.100000
v 1.100000 0.000092 0.000000
v 1.371085 0.800046 1.000000
v 1.371085 0.800046 0.000000
v 1.371085 0.000092 0.000000
v 1.371085 0.000092 1.000000
v 1.000000 0.000092 1.371085
v 1.000000 0.800046 1.371085
v 0.000000 0.800046 1.371085
v 0.000000 0.000092 1.371085
v 0.900000 0.000092 0.000000
v 0.000000 0.000092 0.900000
v 1.100000 1.119650 0.000000
v 1.100000 1.119650 1.100000
v 0.000000 1.119650 1.100000
v 0.000000 1.119650 0.900000
v 0.900000 1.119650 0.000000
vt 0.375861 0.253141
vt 0.430116 0.170476
vt 0.621786 0.174249
vt 0.648136 0.272183
vt 0.655602 0.023313
vt 0.713991 0.038016
vt 0.327614 0.165643
vt 0.325692 0.000087
vt 0.137327 0.165616
vt 0.112137 0.008895
vt 0.050677 0.021327
vt 0.107241 0.260335
vt 0.439955 0.001146
vt 0.754693 0.049403
vt 0.690952 0.277245
vt 0.063829 0.264564
vt 0.012519 0.030070
vn 0.762635 0.646829 0.000000
vn 0.762635 0.646829 0.000000
vn 0.762635 0.646829 0.000000
vn 0.762635 0.646829 0.000000
vn 0.000000 0.000000 -1.000000
vn 0.000000 0.000000 -1.000000
vn 0.000000 0.000000 -1.000000
vn 0.000000 0.000000 -1.000000
vn 0.661316 0.354009 0.661316
vn 0.661316 0.354009 0.661316
vn 0.661316 0.354009 0.661316
vn 0.000000 0.000000 1.000000
vn 0.000000 0.000000 1.000000
vn 0.000000 0.000000 1.000000
vn 0.000000 0.000000 1.000000
vn -1.000000 0.000000 0.000000
vn -1.000000 0.000000 0.000000
vn -1.000000 0.000000 0.000000
vn -1.000000 0.000000 0.000000
vn 0.707107 -0.000000 0.707107
vn 0.707107 -0.000000 0.707107
vn 0.707107 -0.000000 0.707107
vn 0.707107 -0.000000 0.707107
vn 0.000000 0.000000 -1.000000
vn 0.000000 0.000000 -1.000000
vn 0.000000 0.000000 -1.000000
vn 0.000000 0.000000 -1.000000
vn -1.000000 0.000000 0.000000
vn -1.000000 0.000000 0.000000
vn -1.000000 0.000000 0.000000
vn -1.000000 0.000000 0.000000
vn 1.000000 0.000000 0.000000
vn 1.000000 0.000000 0.000000
vn 1.000000 0.000000 0.000000
vn 1.000000 0.000000 0.000000
vn 0.000000 0.646829 0.762635
vn 0.000000 0.646829 0.762635
vn 0.000000 0.646829 0.762635
vn 0.000000 0.646829 0.762635
s off
g SM_WallCornerBottom1:Mesh
usemtl SM_WallCornerBottom1:initialShadingGroup
f 14/1/1 3/2/2 4/3/3 13/4/4
f 13/4/5 4/3/6 5/5/7 2/6/8
f 3/2/9 14/1/10 8/7/11
f 7/8/12 8/7/13 9/9/14 10/10/15
f 1/11/16 10/10/17 9/9/18 15/12/19
f 7/8/20 6/13/21 3/2/22 8/7/23
f 13/4/24 2/6/25 11/14/26 17/15/27
f 1/11/28 15/12/29 16/16/30 12/17/31
f 5/5/32 4/3/33 3/2/34 6/13/35
f 15/12/36 9/9/37 8/7/38 14/1/39
