# This file uses centimeters as units for non-parametric coordinates.

mtllib SM_WallTrimCornerLow.mtl
g default
v 0.870000 3.100000 0.000000
v 0.000000 3.100000 1.100000
v 0.000000 0.000092 1.100000
v 1.100000 3.100000 0.869714
v 1.100000 3.100000 0.000000
v 1.100000 0.000092 0.000000
v 1.371085 0.800046 1.000000
v 1.371085 0.800046 0.000000
v 1.371085 0.000092 0.000000
v 1.100000 1.119650 1.100000
v 0.000000 1.119650 1.100000
v 1.100000 1.119650 0.000000
v 1.371085 0.000092 1.000000
v 1.000000 0.000092 1.371085
v 1.000000 0.800046 1.371085
v 0.000000 0.800046 1.371085
v 0.000000 0.000092 1.371085
v 0.900000 0.000092 0.000000
v 0.900000 1.119650 0.000000
v 0.000000 3.100000 0.870000
v 0.000000 0.000092 0.900000
v 0.000000 1.119650 0.900000
v 0.000000 2.487353 1.100000
v 1.100000 2.487353 0.000000
v 1.100000 2.487353 1.100000
v 0.870000 2.487353 0.000000
v 0.000000 2.487353 0.870000
v 1.230278 2.587353 0.000000
v 1.230278 3.100000 0.000000
v 1.230278 3.100000 1.100000
v 1.230278 2.587353 1.100000
v 1.100000 2.587353 1.230278
v 1.100000 3.100000 1.230278
v 0.000000 3.100000 1.230278
v 0.000000 2.587353 1.230278
v 0.875714 3.100000 1.100000
v 0.874186 3.100000 0.637354
v 0.643063 3.100000 0.870000
v 0.643063 2.890372 0.870000
v 0.874186 2.889654 0.637354
vt 0.375861 0.253141
vt 0.430116 0.170476
vt 0.621786 0.174249
vt 0.648136 0.272183
vt 0.659422 0.607284
vt 0.645447 0.642659
vt 0.410539 0.664250
vt 0.391622 0.622474
vt 0.655602 0.023313
vt 0.713991 0.038016
vt 0.327614 0.165643
vt 0.325692 0.000087
vt 0.137327 0.165616
vt 0.112137 0.008895
vt 0.050677 0.021327
vt 0.107241 0.260335
vt 0.439955 0.001146
vt 0.690952 0.277245
vt 0.714249 0.597318
vt 0.754693 0.049403
vt 0.063829 0.264564
vt 0.012519 0.030070
vt 0.105118 0.597348
vt 0.052671 0.744335
vt 0.000087 0.726091
vt 0.048684 0.586023
vt 0.709849 0.743643
vt 0.754693 0.728637
vt 0.676488 0.754895
vt 0.471144 0.811452
vt 0.411993 0.786807
vt 0.680267 0.786221
vt 0.075914 0.845985
vt 0.082538 0.788197
vt 0.302563 0.813419
vt 0.237484 0.864506
vt 0.370418 0.660848
vt 0.362667 0.787146
vt 0.086291 0.755465
vt 0.120146 0.643016
vt 0.345331 0.854391
vt 0.431394 0.854936
vt 0.703745 0.988949
vt 0.539337 0.909624
vt 0.533566 0.859008
vt 0.686940 0.841524
vt 0.058269 0.999913
vt 0.231447 0.917175
vt 0.433228 0.941664
vt 0.345431 0.941978
vt 0.433430 0.997979
vt 0.345632 0.998101
vn 0.762620 0.646847 0.000000
vn 0.762620 0.646847 0.000000
vn 0.762620 0.646847 0.000000
vn 0.762620 0.646847 0.000000
vn 0.608892 -0.793253 0.000000
vn 0.608892 -0.793253 0.000000
vn 0.608892 -0.793253 0.000000
vn 0.608892 -0.793253 0.000000
vn 0.000000 0.000000 -1.000000
vn 0.000000 0.000000 -1.000000
vn 0.000000 0.000000 -1.000000
vn 0.000000 0.000000 -1.000000
vn 0.661317 0.354005 0.661317
vn 0.661316 0.354005 0.661317
vn 0.661317 0.354005 0.661317
vn 0.000000 0.000000 1.000000
vn 0.000000 0.000000 1.000000
vn 0.000000 0.000000 1.000000
vn 0.000000 0.000000 1.000000
vn -1.000000 0.000000 0.000000
vn -1.000000 0.000000 0.000000
vn -1.000000 0.000000 0.000000
vn -1.000000 0.000000 0.000000
vn 0.707107 0.000000 0.707107
vn 0.707107 0.000000 0.707107
vn 0.707107 0.000000 0.707107
vn 0.707107 0.000000 0.707107
vn 0.000000 0.000000 -1.000000
vn 0.000000 0.000000 -1.000000
vn 0.000000 0.000000 -1.000000
vn 0.000000 0.000000 -1.000000
vn 0.000000 0.000000 -1.000000
vn 0.000000 0.000000 -1.000000
vn 0.000000 0.000000 -1.000000
vn 0.000000 0.000000 -1.000000
vn -1.000000 0.000000 0.000000
vn -1.000000 0.000000 0.000000
vn -1.000000 0.000000 0.000000
vn -1.000000 0.000000 0.000000
vn -1.000000 0.000000 0.000000
vn -1.000000 0.000000 0.000000
vn -1.000000 0.000000 0.000000
vn -1.000000 0.000000 0.000000
vn -1.000000 0.000000 0.000000
vn -1.000000 0.000000 0.000000
vn -1.000000 0.000000 0.000000
vn -1.000000 0.000000 0.000000
vn 0.000000 0.000000 -1.000000
vn 0.000000 0.000000 -1.000000
vn 0.000000 0.000000 -1.000000
vn 0.000000 0.000000 -1.000000
vn 0.000000 0.000000 1.000000
vn 0.000000 0.000000 1.000000
vn 0.000000 0.000000 1.000000
vn 0.000000 0.000000 1.000000
vn 0.000000 0.000000 -1.000000
vn 0.000000 0.000000 -1.000000
vn 0.000000 0.000000 -1.000000
vn 0.000000 0.000000 -1.000000
vn 0.000000 1.000000 0.000000
vn 0.000000 1.000000 0.000000
vn 0.000000 1.000000 0.000000
vn 0.000000 1.000000 0.000000
vn 0.000000 1.000000 0.000000
vn 0.000000 1.000000 0.000000
vn 0.000000 1.000000 0.000000
vn 0.000000 1.000000 0.000000
vn 0.000000 0.000000 1.000000
vn 0.000000 0.000000 1.000000
vn 0.000000 0.000000 1.000000
vn 0.000000 0.000000 1.000000
vn 0.707107 0.000000 0.707107
vn 0.707107 0.000000 0.707107
vn 0.707107 0.000000 0.707107
vn 0.707107 0.000000 0.707107
vn 0.000000 1.000000 0.000001
vn 0.000000 1.000000 0.000001
vn 0.000000 1.000000 0.000001
vn 0.000000 1.000000 0.000001
vn -1.000000 0.000000 0.000000
vn -1.000000 0.000000 0.000000
vn -1.000000 0.000000 0.000000
vn -1.000000 0.000000 0.000000
vn 0.000000 -0.793253 0.608892
vn 0.000000 -0.793253 0.608892
vn 0.000000 -0.793253 0.608892
vn 0.000000 -0.793253 0.608892
vn 0.520069 -0.677537 0.520069
vn 0.520069 -0.677537 0.520069
vn 0.520069 -0.677537 0.520069
vn 1.000000 0.000000 0.000000
vn 1.000000 0.000000 0.000000
vn 1.000000 0.000000 0.000000
vn 1.000000 0.000000 0.000000
vn 1.000000 0.000000 0.000000
vn 1.000000 0.000000 0.000000
vn 1.000000 0.000000 0.000000
vn 1.000000 0.000000 0.000000
vn 1.000000 0.000000 0.000000
vn 1.000000 0.000000 0.000000
vn 1.000000 0.000000 0.000000
vn 1.000000 0.000000 0.000000
vn 0.000000 1.000000 -0.000002
vn 0.000000 1.000000 -0.000002
vn 0.000000 1.000000 -0.000002
vn 0.000000 1.000000 -0.000002
vn 0.000000 0.646847 0.762620
vn 0.000000 0.646847 0.762620
vn 0.000000 0.646847 0.762620
vn 0.000000 0.646847 0.762620
vn -0.999978 0.000000 0.006568
vn -0.999978 0.000000 0.006568
vn -0.999978 0.000000 0.006568
vn -0.999978 0.000000 0.006568
vn 0.000000 0.000000 -1.000000
vn 0.000000 0.000000 -1.000000
vn 0.000000 0.000000 -1.000000
vn 0.000000 0.000000 -1.000000
vn 0.000000 1.000000 -0.000000
vn 0.000000 1.000000 -0.000000
vn 0.000000 1.000000 -0.000000
vn 0.000000 1.000000 -0.000000
vn 0.000000 1.000000 0.000000
vn 0.000000 1.000000 0.000000
vn 0.000000 1.000000 0.000000
vn 0.000000 1.000000 0.000000
vn -0.709425 0.000000 -0.704781
vn -0.709425 0.000000 -0.704781
vn -0.709425 0.000000 -0.704781
vn -0.709425 0.000000 -0.704781
s off
g SM_Wall_Trim_Corner_Pillar:Mesh
usemtl initialShadingGroup
f 10/1/1 7/2/2 8/3/3 12/4/4
f 24/5/5 28/6/6 31/7/7 25/8/8
f 12/4/9 8/3/10 9/9/11 6/10/12
f 7/2/13 10/1/14 15/11/15
f 14/12/16 15/11/17 16/13/18 17/14/19
f 3/15/20 17/14/21 16/13/22 11/16/23
f 14/12/24 13/17/25 7/2/26 15/11/27
f 24/5/28 12/4/29 19/18/30 26/19/31
f 12/4/32 6/10/33 18/20/34 19/18/35
f 3/15/36 11/16/37 22/21/38 21/22/39
f 23/23/40 2/24/41 20/25/42 27/26/43
f 11/16/44 23/23/45 27/26/46 22/21/47
f 5/27/48 24/5/49 26/19/50 1/28/51
f 10/1/52 25/8/53 23/23/54 11/16/55
f 5/27/56 29/29/57 28/6/58 24/5/59
f 4/30/60 30/31/61 29/29/62 5/32/63
f 20/33/64 2/34/65 36/35/66 38/36/67
f 32/37/68 33/38/69 34/39/70 35/40/71
f 32/37/72 31/7/73 30/31/74 33/38/75
f 36/41/76 33/38/77 30/31/78 4/42/79
f 23/23/80 35/40/81 34/39/82 2/24/83
f 25/8/84 32/37/85 35/40/86 23/23/87
f 31/7/88 32/37/89 25/8/90
f 28/6/91 29/29/92 30/31/93 31/7/94
f 12/4/95 24/5/96 25/8/97 10/1/98
f 9/9/99 8/3/100 7/2/101 13/17/102
f 2/34/103 34/39/104 33/38/105 36/35/106
f 11/16/107 16/13/108 15/11/109 10/1/110
f 26/43/111 40/44/112 37/45/113 1/46/114
f 27/47/115 20/33/116 38/36/117 39/48/118
f 4/30/119 5/32/120 1/46/121 37/45/122
f 37/49/123 38/50/124 36/41/125 4/42/126
f 37/49/127 40/51/128 39/52/129 38/50/130
